<svg width="1440" height="33" viewBox="0 0 1440 33" fill="none" xmlns="http://www.w3.org/2000/svg">
<path d="M1285.93 32.5973C1281.09 27.2017 1276.21 21.7613 1271.65 16.6672C1276.51 11.1934 1281.48 5.59661 1286.31 0.15625C1290.9 5.27265 1295.86 10.8024 1300.63 16.131C1295.83 21.4932 1290.89 27.0341 1285.93 32.5862V32.5973ZM1286.04 5.16095C1282.85 8.74689 1279.42 12.6009 1276.23 16.1869C1279.36 19.7728 1282.76 23.6604 1286.06 27.4363C1289.3 23.7274 1292.7 19.8399 1295.93 16.131C1292.77 12.6233 1289.31 8.79158 1286.04 5.16095Z" fill="#D6A428"/>
<path d="M613.93 32.2505C609.36 27.1565 604.4 21.6267 599.61 16.2758C604.43 10.8912 609.39 5.35037 614.12 0.0664062C618.84 5.36154 623.78 10.8913 628.41 16.0747C623.78 21.2469 618.79 26.8214 613.93 32.2505ZM613.95 27.3017C617.41 23.4365 620.84 19.6048 623.9 16.1864C620.72 12.6451 617.28 8.81341 614.23 5.41737C611.04 8.93629 607.59 12.7568 604.18 16.5215C607.38 20.0516 610.79 23.8051 613.96 27.3129L613.95 27.3017Z" fill="#D6A428"/>
<path d="M494.69 16.3429C490 21.5822 485.11 27.0449 480.51 32.1724C475.78 26.8773 470.84 21.3587 466.1 16.0413C470.61 11.0478 475.57 5.55154 480.33 0.267578C484.95 5.43983 489.89 10.9584 494.69 16.3317V16.3429ZM489.88 16.5775C486.52 12.8016 483.11 8.96993 479.98 5.43984C476.89 8.88056 473.52 12.6229 470.42 16.0748C473.67 19.7278 477.09 23.5706 480.36 27.2571C483.51 23.7159 486.87 19.9512 489.88 16.5775Z" fill="#D6A428"/>
<path d="M749.58 32.0722C745.1 27.0675 740.2 21.6048 735.53 16.3991C740.34 11.0369 745.28 5.51834 750.01 0.234375C754.63 5.38428 759.51 10.8358 764.15 16.0081C759.43 21.2138 754.4 26.7547 749.58 32.0722ZM760.14 15.6841C756.93 12.0981 753.5 8.26645 750.41 4.81456C746.68 8.97024 743.29 12.7461 740.4 15.9634C743.62 19.594 747.05 23.4369 750.13 26.9111C753.22 23.4481 756.59 19.661 760.14 15.6841Z" fill="#D6A428"/>
<path d="M226.74 16.4551C222.02 21.7055 217.14 27.1459 212.48 32.3293C207.71 26.9337 202.74 21.3145 197.92 15.863C202.42 10.8471 207.37 5.32858 212.08 0.078125C216.85 5.40677 221.78 10.9142 226.75 16.4551H226.74ZM212.22 5.094C208.97 8.75815 205.54 12.6122 202.34 16.2205C205.52 19.7953 208.95 23.6493 212.2 27.3023C215.45 23.627 218.87 19.7618 222.09 16.1311C218.94 12.601 215.5 8.75815 212.22 5.094Z" fill="#D6A428"/>
<path d="M1018.37 0.414062C1022.86 5.41875 1027.75 10.8815 1032.4 16.0649C1027.63 21.3824 1022.7 26.9009 1017.92 32.2295C1013.33 27.0796 1008.47 21.6169 1003.85 16.4223C1008.58 11.2054 1013.6 5.66451 1018.37 0.414062ZM1018.14 5.16181C1014.9 8.89298 1011.52 12.7805 1008.29 16.5005C1011.4 19.9301 1014.8 23.6836 1017.95 27.169C1021.19 23.4937 1024.59 19.6396 1027.86 15.9308C1024.73 12.4677 1021.33 8.70307 1018.13 5.16181H1018.14Z" fill="#D6A428"/>
<path d="M78.21 32.4075C73.43 27.0677 68.48 21.538 63.7 16.1982C68.46 10.8807 73.42 5.35099 78.22 0C83.01 5.33982 87.96 10.8584 92.79 16.254C87.98 21.5939 83.01 27.1012 78.22 32.4187L78.21 32.4075ZM78.16 27.5481C81.62 23.6829 84.98 19.907 88.14 16.3658C84.82 12.6681 81.38 8.83639 78.27 5.37333C75.04 8.98162 71.62 12.8022 68.36 16.444C71.47 19.9741 74.81 23.7611 78.15 27.5593L78.16 27.5481Z" fill="#D6A428"/>
<path d="M1137.55 16.2314C1142.32 10.9027 1147.27 5.38412 1152 0.111328C1156.76 5.42881 1161.71 10.9474 1166.45 16.2537C1161.68 21.5712 1156.72 27.1009 1151.98 32.3849C1147.21 27.0562 1142.27 21.5265 1137.55 16.2425V16.2314ZM1161.73 16.4548C1158.4 12.7348 1154.97 8.91422 1151.66 5.21656C1148.56 8.69079 1145.19 12.4667 1142.01 16.0191C1145.35 19.7391 1148.79 23.5708 1152.12 27.2796C1155.23 23.7719 1158.59 19.996 1161.73 16.4548Z" fill="#D6A428"/>
<path d="M869.38 16.2652C874.2 10.8918 879.16 5.35092 883.89 0.078125C888.62 5.35092 893.56 10.8807 898.22 16.0864C893.57 21.281 888.58 26.8666 883.73 32.2958C879.14 27.1682 874.18 21.6273 869.38 16.2652ZM884 4.99347C880.71 8.69113 877.26 12.5452 873.95 16.2652C877.23 19.9293 880.68 23.7834 883.99 27.4922C887.31 23.7834 890.76 19.9293 894.08 16.2205C890.84 12.6122 887.46 8.84752 884 4.99347Z" fill="#D6A428"/>
<path d="M14.0102 29.9825C12.2202 29.9825 10.7902 29.9825 9.16016 29.9825C9.16016 20.7775 9.16016 11.7511 9.16016 2.49023C10.8102 2.49023 12.3102 2.49023 14.0102 2.49023C14.0102 11.6506 14.0102 20.6881 14.0102 29.9825Z" fill="#1B8354"/>
<path d="M1221.85 2.5918C1221.85 11.6851 1221.85 20.6109 1221.85 29.8495C1220.31 29.8495 1218.81 29.8495 1217.29 29.8495C1216.62 27.3583 1216.4 9.22747 1217.01 2.5918C1218.46 2.5918 1219.96 2.5918 1221.85 2.5918Z" fill="#1B8354"/>
<path d="M949.02 29.8383C949.02 20.6333 949.02 11.6852 949.02 2.51367C950.67 2.51367 952.16 2.51367 953.82 2.51367C953.82 11.6517 953.82 20.5886 953.82 29.8383C952.29 29.8383 950.8 29.8383 949.02 29.8383Z" fill="#1B8354"/>
<path d="M814.83 29.9045C814.83 20.6548 814.83 11.7179 814.83 2.53516C816.48 2.53516 817.98 2.53516 819.71 2.53516C819.71 11.5838 819.71 20.6213 819.71 29.9045C818.16 29.9045 816.65 29.9045 814.83 29.9045Z" fill="#1B8354"/>
<path d="M685.93 2.57031C685.93 11.686 685.93 20.6118 685.93 29.8503C684.36 29.8503 682.86 29.8503 681.32 29.8503C680.71 27.3033 680.5 9.11662 681.07 2.57031C682.53 2.57031 684.02 2.57031 685.92 2.57031H685.93Z" fill="#1B8354"/>
<path d="M148.09 29.9942C146.41 29.9942 144.98 29.9942 143.34 29.9942C143.34 20.8115 143.34 11.774 143.34 2.50195C144.94 2.50195 146.43 2.50195 148.09 2.50195C148.09 11.6511 148.09 20.5992 148.09 29.9942Z" fill="#1B8354"/>
<path d="M637.59 16.399C633.17 21.3366 628.68 26.3413 624.04 31.5247C623.54 31.0556 622.88 30.4523 621.87 29.5028C625.82 25.0678 629.63 20.7892 633.69 16.2314C629.77 11.83 626.02 7.61842 622.06 3.16112C622.75 2.28977 623.35 1.51895 623.8 0.949219C628.51 6.23318 633.05 11.3161 637.59 16.4101V16.399Z" fill="#D6A428"/>
<path d="M874.18 0.960938C874.63 1.43013 875.25 2.07808 876.12 2.97177C872.21 7.4179 868.4 11.73 864.42 16.2655C868.36 20.6781 872.12 24.8896 876.08 29.3246C875.3 30.2294 874.66 30.9779 874.28 31.4247C869.53 26.1408 864.97 21.0579 860.56 16.1426C864.93 11.2719 869.49 6.18905 874.18 0.960938Z" fill="#D6A428"/>
<path d="M1159.36 29.0453C1163.53 24.5992 1167.4 20.477 1171.42 16.1761C1167.46 11.6853 1163.64 7.35086 1159.7 2.89356C1160.52 2.03338 1161.15 1.38544 1161.55 0.960938C1166.24 6.21139 1170.79 11.3055 1175.06 16.0867C1170.84 20.8345 1166.3 25.9285 1161.47 31.3577C1161.21 31.0672 1160.52 30.3076 1159.36 29.0453Z" fill="#D6A428"/>
<path d="M54.94 15.9077C59.17 11.1712 63.65 6.13295 68.31 0.916016C68.82 1.39638 69.46 1.99965 70.46 2.93803C66.5 7.39533 62.67 11.6962 58.66 16.2094C62.61 20.6443 66.38 24.8782 70.3 29.2796C69.58 30.1845 69.03 30.8883 68.72 31.2793C64.07 26.0847 59.51 21.0018 54.94 15.9077Z" fill="#D6A428"/>
<path d="M759.38 31.7703C758.94 31.2341 758.43 30.5974 757.59 29.5696C761.53 25.1458 765.35 20.8673 769.49 16.2312C765.58 11.841 761.78 7.57357 757.85 3.16096C758.53 2.23375 759.07 1.50763 759.35 1.10547C764.05 6.34475 768.67 11.4835 773.13 16.4658C768.93 21.1354 764.38 26.2071 759.37 31.7815L759.38 31.7703Z" fill="#D6A428"/>
<path d="M1295.52 31.6584C1294.99 31.0329 1294.46 30.4073 1293.66 29.4689C1297.62 25.0116 1301.45 20.6995 1305.48 16.164C1301.46 11.8967 1297.59 7.78564 1293.52 3.47357C1294.52 2.26708 1295.15 1.51864 1295.6 0.982422C1300.34 6.27756 1304.89 11.3604 1309.28 16.2646C1304.96 21.0905 1300.41 26.1845 1295.51 31.6696L1295.52 31.6584Z" fill="#D6A428"/>
<path d="M1266.19 16.5561C1270.37 20.9576 1274.17 24.9568 1278.12 29.1237C1277.38 30.1179 1276.85 30.844 1276.57 31.2239C1271.89 25.9846 1267.3 20.8347 1262.89 15.8859C1266.96 11.3392 1271.51 6.25631 1276.22 1.00586C1276.65 1.45271 1277.26 2.08947 1278.14 3.00551C1274.23 7.44046 1270.42 11.7637 1266.19 16.5673V16.5561Z" fill="#D6A428"/>
<path d="M998.41 16.2094C1002.34 20.6667 1006.16 24.99 1010.45 29.8494C1009.53 30.5421 1008.83 31.0671 1008.41 31.3799C1003.74 26.163 999.19 21.0689 994.92 16.2876C999.09 11.6069 1003.68 6.45701 1008.44 1.11719C1008.69 1.37412 1009.31 2.01088 1010.17 2.8934C1006.23 7.3507 1002.41 11.6851 998.42 16.1983L998.41 16.2094Z" fill="#D6A428"/>
<path d="M1128.64 16.2311C1133.02 11.3269 1137.58 6.23287 1142.27 0.982422C1142.72 1.44044 1143.35 2.08837 1144.21 2.97089C1140.29 7.41702 1136.48 11.7402 1132.32 16.4656C1136.42 20.6772 1140.35 24.7323 1144.67 29.1784C1143.57 30.4296 1142.92 31.1669 1142.46 31.692C1137.54 26.1846 1132.98 21.0905 1128.64 16.2199V16.2311Z" fill="#D6A428"/>
<path d="M1041.21 16.5103C1036.94 21.2692 1032.46 26.2739 1027.78 31.502C1027.3 31.0663 1026.65 30.4742 1025.67 29.5805C1029.63 25.1232 1033.45 20.8335 1037.45 16.3316C1033.5 11.8519 1029.7 7.551 1025.77 3.09371C1026.52 2.20001 1027.09 1.50739 1027.46 1.06055C1032.1 6.27748 1036.64 11.3716 1041.22 16.5103H1041.21Z" fill="#D6A428"/>
<path d="M903.5 16.0865C899.47 11.8303 895.58 7.73043 891.5 3.42953C892.51 2.23421 893.15 1.49692 893.64 0.916016C898.38 6.19998 902.95 11.294 907.35 16.187C902.95 21.1135 898.39 26.2076 893.7 31.458C893.23 30.9888 892.58 30.3521 891.69 29.4584C895.61 25.0123 899.43 20.689 903.5 16.0642V16.0865Z" fill="#D6A428"/>
<path d="M101.43 16.5789C97.2802 21.2261 92.7902 26.2419 88.0702 31.5147C87.5602 31.0232 86.8602 30.3529 85.9302 29.4481C89.8702 25.0131 93.6302 20.7792 97.6902 16.2102C93.7802 11.8199 89.9602 7.53023 86.0102 3.09527C86.7502 2.22392 87.3402 1.54248 87.6502 1.17383C92.2902 6.36842 96.8402 11.4401 101.43 16.5789Z" fill="#D6A428"/>
<path d="M192.31 16.567C196.53 20.9237 200.45 24.9677 204.52 29.1681C203.66 30.2517 203.1 30.9443 202.79 31.3465C198.08 26.0737 193.47 20.9126 189.05 15.9637C193.14 11.3947 197.68 6.31185 202.4 1.03906C202.78 1.39654 203.43 1.99979 204.44 2.92699C200.5 7.36195 196.69 11.6517 192.31 16.567Z" fill="#D6A428"/>
<path d="M740.4 1.03906C740.81 1.53059 741.38 2.2232 742.31 3.34032C738.23 7.50717 734.29 11.5288 730.22 15.6956C734.57 20.3093 738.44 24.398 742.49 28.6877C741.42 30.0841 740.82 30.8661 740.43 31.38C735.71 26.1183 731.15 21.0354 726.83 16.2095C731.03 11.5176 735.58 6.43474 740.41 1.03906H740.4Z" fill="#D6A428"/>
<path d="M219.67 3.42987C220.77 2.13401 221.3 1.51962 222.13 0.525391C226.82 5.74233 231.44 10.8699 235.87 15.7852C231.12 21.0915 226.58 26.1744 221.87 31.436C221.44 30.9892 220.83 30.3524 219.91 29.3917C223.85 24.9679 227.67 20.6782 231.85 15.9974C227.76 11.7747 223.84 7.73079 219.67 3.41872V3.42987Z" fill="#D6A428"/>
<path d="M590.98 15.8181C595.08 11.2379 599.58 6.22201 604.32 0.949219C604.8 1.39607 605.5 2.05519 606.46 2.96005C602.51 7.395 598.75 11.6177 594.64 16.2202C598.56 20.6105 602.38 24.8779 606.35 29.324C605.62 30.1954 605.04 30.8768 604.75 31.2231C600.12 26.0397 595.58 20.9568 590.98 15.8069V15.8181Z" fill="#D6A428"/>
<path d="M456.97 16.2533C461.27 11.4386 465.8 6.35568 470.53 1.06055C470.88 1.40685 471.51 2.02128 472.49 2.99317C468.55 7.40578 464.73 11.6955 460.82 16.0746C464.78 20.3978 468.59 24.5535 472.58 28.9215C471.62 30.1391 471.02 30.8988 470.57 31.4797C465.85 26.1957 461.3 21.1128 456.97 16.2645V16.2533Z" fill="#D6A428"/>
<path d="M499.8 16.0858C495.77 11.8296 491.9 7.74096 487.83 3.44006C488.81 2.26709 489.43 1.51864 489.88 0.982422C494.61 6.26639 499.16 11.3381 503.52 16.2087C499.22 21.0346 494.67 26.1175 489.89 31.4797C489.5 31.0999 488.81 30.4185 487.9 29.5359C491.91 25.0004 495.73 20.6772 499.8 16.0858Z" fill="#D6A428"/>
<path d="M1083.05 2.46875C1084.69 2.46875 1086.09 2.46875 1087.77 2.46875C1087.77 11.5844 1087.77 20.6107 1087.77 29.894C1086.23 29.894 1084.75 29.894 1083.05 29.894C1083.05 20.8006 1083.05 11.8637 1083.05 2.46875Z" fill="#1B8354"/>
<path d="M550.22 29.9504C548.25 29.9504 546.85 29.9504 545.24 29.9504C545.24 20.7342 545.24 11.7079 545.24 2.48047C546.85 2.48047 548.25 2.48047 550.02 2.48047C550.43 11.5626 550.1 20.5889 550.22 29.9504Z" fill="#1B8354"/>
<path d="M1193.52 23.7617V29.1686H1188.75C1188.75 27.3253 1188.75 25.6608 1188.75 23.7617C1190.38 23.7617 1191.86 23.7617 1193.52 23.7617Z" fill="#1B8354"/>
<path d="M1111.64 29.034V23.75C1113.3 23.75 1114.79 23.75 1116.49 23.75C1116.49 25.515 1116.49 27.1796 1116.49 29.034C1114.85 29.034 1113.21 29.034 1111.64 29.034Z" fill="#1B8354"/>
<path d="M1054.52 29.1783C1054.52 27.2904 1054.52 25.7264 1054.52 23.8496C1056.07 23.8496 1057.55 23.8496 1059.34 23.8496C1059.34 25.4471 1059.34 27.201 1059.34 29.1783C1057.86 29.1783 1056.37 29.1783 1054.52 29.1783Z" fill="#1B8354"/>
<path d="M1245.79 23.7051C1247.52 23.7051 1248.92 23.7051 1250.55 23.7051C1250.55 25.526 1250.55 27.1905 1250.55 29.1231H1245.79C1245.79 27.4697 1245.79 25.7159 1245.79 23.7051Z" fill="#1B8354"/>
<path d="M114.92 8.66933V3.31836C116.56 3.31836 118.13 3.31836 119.89 3.31836C119.89 5.11692 119.89 6.77023 119.89 8.66933C118.26 8.66933 116.77 8.66933 114.92 8.66933Z" fill="#1B8354"/>
<path d="M42.8498 3.25C42.8498 5.16027 42.8498 6.73538 42.8498 8.60097C41.2698 8.60097 39.7898 8.60097 38.0098 8.60097C38.0098 6.96998 38.0098 5.2273 38.0098 3.25C39.5298 3.25 41.0198 3.25 42.8498 3.25Z" fill="#1B8354"/>
<path d="M920.77 23.7051C922.38 23.7051 923.79 23.7051 925.5 23.7051V29.1789H920.77C920.77 27.4698 920.77 25.7941 920.77 23.7051Z" fill="#1B8354"/>
<path d="M843.67 23.6934C845.31 23.6934 846.71 23.6934 848.4 23.6934C848.4 25.4696 848.4 27.2011 848.4 29.1784H843.67C843.67 27.4357 843.67 25.7824 843.67 23.6934Z" fill="#1B8354"/>
<path d="M786.66 23.75C788.24 23.75 789.64 23.75 791.33 23.75C791.33 25.4704 791.33 27.2243 791.33 29.1792C789.79 29.1792 788.3 29.1792 786.66 29.1792C786.66 27.3024 786.66 25.6379 786.66 23.75Z" fill="#1B8354"/>
<path d="M573.85 23.6836C575.51 23.6836 576.92 23.6836 578.6 23.6836C578.6 25.4822 578.6 27.2361 578.6 29.191C577.06 29.191 575.56 29.191 573.85 29.191V23.6836Z" fill="#1B8354"/>
<path d="M578.76 3.36328C578.76 5.2177 578.76 6.79283 578.76 8.63608C577.16 8.63608 575.67 8.63608 573.9 8.63608C573.9 7.01626 573.9 5.36292 573.9 3.36328C575.35 3.36328 576.92 3.36328 578.76 3.36328Z" fill="#1B8354"/>
<path d="M791.4 8.73581C789.74 8.73581 788.34 8.73581 786.71 8.73581C786.71 6.91491 786.71 5.2616 786.71 3.30664C788.2 3.30664 789.69 3.30664 791.4 3.30664C791.4 4.99349 791.4 6.65798 791.4 8.73581Z" fill="#1B8354"/>
<path d="M119.9 23.8066C119.9 25.5605 119.9 27.1357 119.9 29.0459C118.38 29.0459 116.82 29.0459 115.02 29.0459C115.02 27.4261 115.02 25.7504 115.02 23.8066C116.51 23.8066 118 23.8066 119.9 23.8066Z" fill="#1B8354"/>
<path d="M42.8302 23.8496C42.8302 25.7375 42.8302 27.3015 42.8302 29.1336C41.2202 29.1336 39.7302 29.1336 37.9702 29.1336C37.9702 27.4467 37.9702 25.704 37.9702 23.8496C39.6502 23.8496 41.2102 23.8496 42.8302 23.8496Z" fill="#1B8354"/>
<path d="M848.46 8.71326C846.87 8.71326 845.47 8.71326 843.75 8.71326C843.75 6.9929 843.75 5.25019 843.75 3.26172C845.23 3.26172 846.72 3.26172 848.46 3.26172C848.46 4.94857 848.46 6.61308 848.46 8.71326Z" fill="#1B8354"/>
<path d="M925.55 8.70207H920.74C920.67 7.0264 920.61 5.27253 920.53 3.26172C922.3 3.26172 923.8 3.26172 925.56 3.26172C925.56 4.91505 925.56 6.56838 925.56 8.70207H925.55Z" fill="#1B8354"/>
<path d="M1054.54 8.70261C1054.54 6.65829 1054.54 5.09434 1054.54 3.27344C1056.17 3.27344 1057.67 3.27344 1059.4 3.27344C1059.4 5.01614 1059.4 6.75883 1059.4 8.70261C1057.76 8.70261 1056.27 8.70261 1054.54 8.70261Z" fill="#1B8354"/>
<path d="M1116.51 3.27344C1116.51 5.19488 1116.51 6.87054 1116.51 8.70261C1114.82 8.70261 1113.34 8.70261 1111.65 8.70261C1111.65 6.8482 1111.65 5.18371 1111.65 3.27344C1113.24 3.27344 1114.73 3.27344 1116.51 3.27344Z" fill="#1B8354"/>
<path d="M1193.49 8.72413H1188.8C1188.8 6.90323 1188.8 5.23871 1188.8 3.29492C1190.3 3.29492 1191.78 3.29492 1193.49 3.29492C1193.49 4.99294 1193.49 6.65746 1193.49 8.72413Z" fill="#1B8354"/>
<path d="M1245.72 3.13867C1247.43 3.13867 1248.84 3.13867 1250.52 3.13867C1250.52 4.90372 1250.52 6.56823 1250.52 8.5567C1249.05 8.5567 1247.5 8.5567 1245.72 8.5567V3.13867Z" fill="#1B8354"/>
<path d="M162.16 18.8242C163.85 18.8242 165.33 18.8242 166.99 18.8242C166.99 20.6116 166.99 22.1421 166.99 23.9183C165.37 23.9183 163.88 23.9183 162.16 23.9183C162.16 22.3432 162.16 20.8015 162.16 18.8242Z" fill="#1B8354"/>
<path d="M526.71 18.7344C528.44 18.7344 529.85 18.7344 531.52 18.7344C531.52 20.4212 531.52 21.9628 531.52 23.8284C530.04 23.8284 528.48 23.8284 526.71 23.8284C526.71 22.2309 526.71 20.7005 526.71 18.7344Z" fill="#1B8354"/>
<path d="M569.1 23.9501C567.39 23.9501 565.9 23.9501 564.21 23.9501C564.21 22.2632 564.21 20.7216 564.21 18.8672C565.82 18.8672 567.38 18.8672 569.1 18.8672C569.1 20.5652 569.1 22.0175 569.1 23.9501Z" fill="#1B8354"/>
<path d="M667.23 18.8242C667.23 20.6228 667.23 22.1756 667.23 23.9295H662.44C662.44 22.1644 662.44 20.6228 662.44 18.8242C664.1 18.8242 665.58 18.8242 667.23 18.8242Z" fill="#1B8354"/>
<path d="M699.94 23.873V18.8125C701.61 18.8125 703.09 18.8125 704.79 18.8125C704.79 20.5105 704.79 22.0521 704.79 23.873C703.28 23.873 701.79 23.873 699.94 23.873Z" fill="#1B8354"/>
<path d="M796.61 18.7461C798.27 18.7461 799.68 18.7461 801.34 18.7461C801.34 20.4553 801.34 21.9969 801.34 23.8513C799.88 23.8513 798.4 23.8513 796.61 23.8513C796.61 22.2762 796.61 20.5447 796.61 18.7461Z" fill="#1B8354"/>
<path d="M129.44 23.9506C127.85 23.9506 126.35 23.9506 124.65 23.9506C124.65 22.2638 124.65 20.7221 124.65 18.8789C126.21 18.8789 127.7 18.8789 129.44 18.8789C129.44 20.4652 129.44 22.1074 129.44 23.9506Z" fill="#1B8354"/>
<path d="M930.35 23.8624C930.35 22.1532 930.35 20.6228 930.35 18.8242C932.02 18.8242 933.5 18.8242 935.21 18.8242C935.21 20.4664 935.21 22.0192 935.21 23.8624H930.35Z" fill="#1B8354"/>
<path d="M967.95 18.834C969.6 18.834 971.08 18.834 972.73 18.834C972.73 20.6214 972.73 22.163 972.73 23.928C971.09 23.928 969.61 23.928 967.95 23.928C967.95 22.1742 967.95 20.6325 967.95 18.834Z" fill="#1B8354"/>
<path d="M1069.23 23.9724C1067.57 23.9724 1066.15 23.9724 1064.55 23.9724C1064.55 22.2521 1064.55 20.7104 1064.55 18.8672H1069.23C1069.23 20.6434 1069.23 22.2856 1069.23 23.9724Z" fill="#1B8354"/>
<path d="M1250.59 13.6406V18.8576C1249.05 18.9469 1247.57 19.0363 1245.8 19.148V13.6406C1247.3 13.6406 1248.85 13.6406 1250.59 13.6406Z" fill="#1B8354"/>
<path d="M1227.01 18.8017V13.6406C1228.66 13.6406 1230.21 13.6406 1231.93 13.6406C1231.93 15.4057 1231.93 16.9473 1231.93 18.8017C1230.28 18.8017 1228.73 18.8017 1227.01 18.8017Z" fill="#1B8354"/>
<path d="M1235.81 23.9173V18.9238C1237.46 18.9238 1239.01 18.9238 1240.75 18.9238C1240.75 20.5772 1240.75 22.13 1240.75 23.9173C1239.15 23.9173 1237.66 23.9173 1235.81 23.9173Z" fill="#1B8354"/>
<path d="M1212.32 13.6406C1212.32 15.3722 1212.32 16.9138 1212.32 18.8576C1210.77 18.9469 1209.29 19.0363 1207.53 19.148C1207.53 17.2489 1207.53 15.6068 1207.53 13.6406H1212.32Z" fill="#1B8354"/>
<path d="M1193.45 18.8344C1191.9 18.8344 1190.43 18.8344 1188.77 18.8344C1188.77 17.1028 1188.77 15.55 1188.77 13.6621C1190.26 13.6621 1191.72 13.6621 1193.45 13.6621C1193.45 15.2819 1193.45 16.9241 1193.45 18.8344Z" fill="#1B8354"/>
<path d="M1111.57 18.9011C1111.57 16.9573 1111.57 15.5051 1111.57 13.606C1113.2 13.5166 1114.76 13.4384 1116.52 13.3379C1116.52 15.3822 1116.52 17.0355 1116.52 18.9011C1114.85 18.9011 1113.37 18.9011 1111.57 18.9011Z" fill="#1B8354"/>
<path d="M176.73 23.8398C176.73 25.7054 176.73 27.2805 176.73 29.1238C175.16 29.1238 173.69 29.1238 171.95 29.1238C171.95 27.4481 171.95 25.7948 171.95 23.8398C173.43 23.8398 174.89 23.8398 176.73 23.8398Z" fill="#1B8354"/>
<path d="M1078.24 13.3158C1078.24 15.349 1078.24 17.0023 1078.24 18.8791C1076.6 18.8791 1075.12 18.8791 1073.41 18.8791C1073.41 17.1699 1073.41 15.6171 1073.41 13.5951C1074.91 13.5057 1076.46 13.4164 1078.24 13.3047V13.3158Z" fill="#1B8354"/>
<path d="M1059.45 13.6855C1059.45 15.4059 1059.45 17.0592 1059.45 18.8913C1057.77 18.8913 1056.29 18.8913 1054.6 18.8913C1054.6 17.1374 1054.6 15.5846 1054.6 13.6855C1056.16 13.6855 1057.71 13.6855 1059.45 13.6855Z" fill="#1B8354"/>
<path d="M958.96 18.8243C958.96 16.9923 958.96 15.4395 958.96 13.6074H963.8C963.8 15.2608 963.8 16.8917 963.8 18.8243C962.27 18.8243 960.79 18.8243 958.96 18.8243Z" fill="#1B8354"/>
<path d="M925.53 18.8238C924 18.8238 922.51 18.8238 920.78 18.8238C920.78 17.1816 920.78 15.5283 920.78 13.5957C922.3 13.5957 923.78 13.5957 925.53 13.5957C925.53 15.2602 925.53 16.8912 925.53 18.8238Z" fill="#1B8354"/>
<path d="M521.69 23.7832V29.1007C520.19 29.1007 518.72 29.1007 517.04 29.1007C517.04 27.358 517.04 25.6935 517.04 23.7832C518.56 23.7832 519.93 23.7832 521.69 23.7832Z" fill="#1B8354"/>
<path d="M848.46 18.8568C846.87 18.8568 845.39 18.8568 843.68 18.8568C843.68 17.1252 843.68 15.4831 843.68 13.584C845.27 13.584 846.75 13.584 848.46 13.584C848.46 15.3155 848.46 16.9465 848.46 18.8568Z" fill="#1B8354"/>
<path d="M657.42 23.8281C657.42 25.649 657.42 27.3024 657.42 29.1791H652.87C652.87 27.4588 652.87 25.7943 652.87 23.8281C654.21 23.8281 655.58 23.8281 657.42 23.8281Z" fill="#1B8354"/>
<path d="M709.73 29.168C709.73 27.2801 709.73 25.6268 709.73 23.75C711.31 23.75 712.69 23.75 714.39 23.75C714.39 25.515 714.39 27.2466 714.39 29.168H709.73Z" fill="#1B8354"/>
<path d="M829.87 13.6172V18.8341C828.18 18.8341 826.63 18.8341 824.92 18.8341C824.92 17.002 824.92 15.4604 824.92 13.6172H829.87Z" fill="#1B8354"/>
<path d="M810.24 13.5723C810.24 15.5384 810.24 17.08 810.24 18.8674C808.58 18.8674 807.1 18.8674 805.39 18.8674C805.39 17.1023 805.39 15.4602 805.39 13.5723C807 13.5723 808.48 13.5723 810.24 13.5723Z" fill="#1B8354"/>
<path d="M791.43 13.5957C791.43 15.3049 791.43 16.8577 791.43 18.8573C789.96 18.9355 788.49 19.0026 786.75 19.0919V13.5957C788.29 13.5957 789.76 13.5957 791.43 13.5957Z" fill="#1B8354"/>
<path d="M982.46 23.8164C982.46 25.682 982.46 27.2571 982.46 29.1227C980.91 29.1227 979.44 29.1227 977.79 29.1227C977.79 27.3353 977.79 25.6708 977.79 23.8164C979.39 23.8164 980.85 23.8164 982.46 23.8164Z" fill="#1B8354"/>
<path d="M578.69 18.89C577.02 18.89 575.53 18.89 573.84 18.89C573.84 17.1361 573.84 15.5945 573.84 13.5837C575.38 13.5055 576.93 13.4273 578.69 13.3379V18.89Z" fill="#1B8354"/>
<path d="M535.47 18.9025C535.47 16.9476 535.47 15.5065 535.47 13.5962C537.1 13.5069 538.65 13.4287 540.42 13.3281C540.42 15.3724 540.42 17.0258 540.42 18.8914C538.75 18.8914 537.27 18.8914 535.47 18.8914V18.9025Z" fill="#1B8354"/>
<path d="M158.15 13.5625C158.15 15.5398 158.15 17.0926 158.15 18.8688C156.48 18.8688 155 18.8688 153.3 18.8688C153.3 17.1038 153.3 15.4504 153.3 13.5625C154.91 13.5625 156.4 13.5625 158.15 13.5625Z" fill="#1B8354"/>
<path d="M114.99 13.5625C116.7 13.5625 118.18 13.5625 119.86 13.5625C119.86 15.3275 119.86 16.8692 119.86 18.7683C118.28 18.7683 116.73 18.7683 114.99 18.7683C114.99 17.1149 114.99 15.5621 114.99 13.5625Z" fill="#1B8354"/>
<path d="M42.7799 18.8562C41.0099 18.8562 39.5299 18.8562 37.8799 18.8562C37.8799 17.0576 37.8799 15.516 37.8799 13.6504C39.5099 13.6504 41.0499 13.6504 42.7799 13.6504V18.8562Z" fill="#1B8354"/>
<path d="M19.21 13.5059H23.92C23.92 15.2932 23.92 16.9466 23.92 18.8569C22.34 18.8569 20.87 18.8569 19.21 18.8569C19.21 17.0806 19.21 15.539 19.21 13.5059Z" fill="#1B8354"/>
<path d="M4.43019 18.9584C2.7702 18.9584 1.3702 18.9584 -0.299805 18.9584C-0.299805 17.1822 -0.299805 15.5512 -0.299805 13.6074C1.2102 13.6074 2.69019 13.6074 4.43019 13.6074C4.43019 15.339 4.43019 17.0705 4.43019 18.9584Z" fill="#1B8354"/>
<path d="M1240.74 13.5733C1238.97 13.5733 1237.48 13.5733 1235.84 13.5733C1235.84 11.8418 1235.84 10.4007 1235.84 8.61328H1240.74C1240.74 10.1772 1240.74 11.7189 1240.74 13.5733Z" fill="#1B8354"/>
<path d="M1069.3 13.5834C1067.68 13.5834 1066.2 13.5834 1064.54 13.5834C1064.54 11.8407 1064.54 10.2991 1064.54 8.51172H1069.3V13.5834Z" fill="#1B8354"/>
<path d="M967.96 8.51172C969.58 8.51172 971.07 8.51172 972.73 8.51172C972.73 10.2321 972.73 11.7849 972.73 13.5946C971.1 13.5946 969.62 13.5946 967.96 13.5946C967.96 11.8295 967.96 10.2879 967.96 8.51172Z" fill="#1B8354"/>
<path d="M930.43 8.40039C932.11 8.40039 933.53 8.40039 935.18 8.40039V13.6397C933.54 13.6397 932.06 13.6397 930.43 13.6397C930.43 11.7741 930.43 10.1431 930.43 8.40039Z" fill="#1B8354"/>
<path d="M796.49 13.9088C796.49 11.8198 796.49 10.267 796.49 8.50195H801.35C801.35 10.1106 801.35 11.6411 801.35 13.6072C799.87 13.6966 798.38 13.7971 796.49 13.9088Z" fill="#1B8354"/>
<path d="M699.89 13.842V8.54688H704.7C704.79 9.28417 704.95 10.0885 704.99 10.9152C705.03 11.6413 704.94 12.3786 704.89 13.5851C703.3 13.6633 701.74 13.7526 699.89 13.842Z" fill="#1B8354"/>
<path d="M667.28 8.56836C667.28 10.2999 667.28 11.7521 667.28 13.5284C665.69 13.5284 664.21 13.5284 662.49 13.5284C662.49 11.9532 662.49 10.4116 662.49 8.56836H667.28Z" fill="#1B8354"/>
<path d="M569.11 8.53516C569.11 10.2108 569.11 11.6631 569.11 13.5734C567.53 13.6627 565.98 13.7409 564.2 13.8415C564.2 11.8977 564.2 10.3449 564.2 8.53516C565.74 8.53516 567.23 8.53516 569.11 8.53516Z" fill="#1B8354"/>
<path d="M531.52 13.6409C529.89 13.6409 528.41 13.6409 526.72 13.6409C526.72 11.8871 526.72 10.3454 526.72 8.54688C528.28 8.54688 529.77 8.54688 531.52 8.54688C531.52 10.055 531.52 11.5966 531.52 13.6409Z" fill="#1B8354"/>
<path d="M167.04 8.47852C167.04 10.3441 167.04 11.7964 167.04 13.5502C165.43 13.5502 163.95 13.5502 162.2 13.5502C162.2 11.9416 162.2 10.3218 162.2 8.47852H167.04Z" fill="#1B8354"/>
<path d="M129.47 13.617C127.79 13.617 126.3 13.617 124.63 13.617C124.63 11.8296 124.63 10.2879 124.63 8.51172H129.47V13.617Z" fill="#1B8354"/>
<path d="M977.79 8.82582C977.79 6.79267 977.79 5.12816 977.79 3.24023C979.31 3.24023 980.7 3.24023 982.35 3.24023C982.35 4.96059 982.35 6.62508 982.35 8.35662C982.08 8.51301 981.8 8.79232 981.51 8.80349C980.41 8.85935 979.31 8.82582 977.8 8.82582H977.79Z" fill="#1B8354"/>
<path d="M709.77 3.20703C711.45 3.20703 712.85 3.20703 714.47 3.20703C714.47 5.02793 714.47 6.68127 714.47 8.62506C712.95 8.62506 711.48 8.62506 709.77 8.62506C709.77 6.87118 709.77 5.21784 709.77 3.20703Z" fill="#1B8354"/>
<path d="M657.36 8.71269C655.84 8.71269 654.54 8.71269 652.94 8.71269C652.94 6.98115 652.94 5.2273 652.94 3.25C654.32 3.25 655.7 3.25 657.36 3.25C657.36 5.04856 657.36 6.79124 657.36 8.71269Z" fill="#1B8354"/>
<path d="M521.68 3.33984C521.68 5.2166 521.68 6.80291 521.68 8.64615C520.18 8.64615 518.8 8.64615 517.05 8.64615C516.97 6.99282 516.88 5.32831 516.78 3.33984C518.48 3.33984 519.95 3.33984 521.68 3.33984Z" fill="#1B8354"/>
<path d="M176.68 3.24023C176.68 5.11699 176.68 6.77033 176.68 8.65826C175.11 8.65826 173.73 8.65826 171.93 8.65826C171.86 6.9379 171.79 5.20636 171.71 3.24023C173.55 3.24023 175.03 3.24023 176.68 3.24023Z" fill="#1B8354"/>
<path d="M1198.55 23.9068C1198.55 22.2199 1198.55 20.6783 1198.55 18.8574C1200.15 18.8574 1201.62 18.8574 1203.3 18.8574C1203.3 20.5778 1203.3 22.1194 1203.3 23.9068C1201.72 23.9068 1200.24 23.9068 1198.55 23.9068Z" fill="#1B8354"/>
<path d="M1102.03 23.8948V18.8008C1103.6 18.8008 1104.98 18.8008 1106.6 18.8008V23.8948C1105.15 23.8948 1103.75 23.8948 1102.03 23.8948Z" fill="#1B8354"/>
<path d="M838.72 18.8457C838.72 20.6107 838.72 22.1524 838.72 23.9286C837.09 23.9286 835.61 23.9286 833.94 23.9286C833.94 22.1859 833.94 20.6554 833.94 18.8457C835.5 18.8457 836.89 18.8457 838.72 18.8457Z" fill="#1B8354"/>
<path d="M28.25 18.7793C29.92 18.7793 31.31 18.7793 32.94 18.7793V23.8733C31.45 23.8733 29.97 23.8733 28.25 23.8733C28.25 22.2759 28.25 20.7343 28.25 18.7793Z" fill="#1B8354"/>
<path d="M1097.75 13.6289V18.8123C1096.29 18.8123 1094.91 18.8123 1093.23 18.8123V13.6289C1094.6 13.6289 1095.98 13.6289 1097.75 13.6289Z" fill="#1B8354"/>
<path d="M977.8 13.5059C979.36 13.5059 980.66 13.5059 982.28 13.5059C982.28 15.1704 982.28 16.8014 982.28 18.7787C980.89 18.7787 979.44 18.7787 977.8 18.7787C977.8 17.0806 977.8 15.5278 977.8 13.5059Z" fill="#1B8354"/>
<path d="M939.52 18.8562C939.52 16.9348 939.52 15.3708 939.52 13.5723H944.08C944.08 15.315 944.08 16.9571 944.08 18.8562H939.52Z" fill="#1B8354"/>
<path d="M709.76 13.5625H714.41C714.41 15.2493 714.41 16.8804 714.41 18.813H709.76C709.76 17.0591 709.76 15.4281 709.76 13.5625Z" fill="#1B8354"/>
<path d="M695.58 18.9358C693.96 18.9358 692.66 18.9358 691.13 18.9358C691.13 17.1149 691.13 15.4616 691.13 13.5625C692.64 13.5625 694.02 13.5625 695.58 13.5625C695.58 15.4393 695.58 17.1708 695.58 18.9358Z" fill="#1B8354"/>
<path d="M671.45 18.8562V13.6504C672.99 13.6504 674.45 13.6504 676.17 13.6504C676.17 15.3372 676.17 16.9682 676.17 18.8562H671.45Z" fill="#1B8354"/>
<path d="M652.92 13.4941C654.4 13.4941 655.7 13.4941 657.31 13.4941C657.31 15.1922 657.31 16.8343 657.31 18.7222C656.63 18.8451 655.91 19.0351 655.17 19.0909C654.51 19.1356 653.85 19.0015 652.91 18.9345C652.91 17.2476 652.91 15.6055 652.91 13.5053L652.92 13.4941Z" fill="#1B8354"/>
<path d="M560.07 13.584C560.07 15.3602 560.07 16.913 560.07 18.7897H555.36C555.36 17.114 555.36 15.4831 555.36 13.584C556.86 13.584 558.25 13.584 560.07 13.584Z" fill="#1B8354"/>
<path d="M517.07 13.5625C518.64 13.5625 520.01 13.5625 521.61 13.5625C521.61 15.3611 521.61 17.0144 521.61 18.8912H517.07C517.07 17.0703 517.07 15.4281 517.07 13.5625Z" fill="#1B8354"/>
<path d="M176.65 18.8914C175.03 18.8914 173.65 18.8914 171.98 18.8914C171.98 17.1599 171.98 15.5289 171.98 13.6074C173.5 13.6074 174.96 13.6074 176.65 13.6074C176.65 15.3166 176.65 16.8582 176.65 18.8914Z" fill="#1B8354"/>
<path d="M138.38 18.9025C136.75 18.9025 135.36 18.9025 133.7 18.9025C133.7 17.1598 133.7 15.5177 133.7 13.6074C135.24 13.6074 136.7 13.6074 138.38 13.6074C138.38 15.3278 138.38 16.8806 138.38 18.9025Z" fill="#1B8354"/>
<path d="M1198.56 8.4668C1200.28 8.4668 1201.68 8.4668 1203.29 8.4668C1203.29 10.1872 1203.29 11.7288 1203.29 13.5608C1201.73 13.5608 1200.26 13.5608 1198.56 13.5608V8.4668Z" fill="#1B8354"/>
<path d="M1106.55 13.6281C1104.97 13.6281 1103.59 13.6281 1102.02 13.6281C1102.02 11.8631 1102.02 10.3103 1102.02 8.51172C1103.5 8.51172 1104.88 8.51172 1106.55 8.51172C1106.55 10.0757 1106.55 11.6173 1106.55 13.6281Z" fill="#1B8354"/>
<path d="M833.94 13.596C833.94 11.8086 833.94 10.267 833.94 8.50195C835.6 8.50195 837.08 8.50195 838.73 8.50195C838.73 10.267 838.73 11.7974 838.73 13.596C837.16 13.596 835.76 13.596 833.94 13.596Z" fill="#1B8354"/>
<path d="M360.42 16.444C355.85 21.5268 350.9 27.0454 346.05 32.441C341.38 27.2241 336.49 21.7838 331.91 16.6674C336.72 11.294 341.64 5.7978 346.27 0.636719C350.66 5.54086 355.59 11.0483 360.43 16.444H360.42ZM346.43 5.03816C343.06 8.81402 339.63 12.6569 336.53 16.12C339.73 19.7171 343.14 23.56 346.15 26.956C349.38 23.3701 352.8 19.5607 356.05 15.9524C352.93 12.4223 349.59 8.62411 346.42 5.03816H346.43Z" fill="#D6A428"/>
<path d="M416.03 30.0179C414.39 30.0179 412.96 30.0179 411.28 30.0179C411.28 20.9022 411.28 11.8759 411.28 2.57031C412.77 2.57031 414.28 2.57031 416.03 2.57031C416.03 11.5408 416.03 20.5671 416.03 30.0179Z" fill="#1B8354"/>
<path d="M277.27 29.8933C277.27 20.6771 277.27 11.7402 277.27 2.53516H281.87C281.87 11.5503 281.87 20.5989 281.87 29.8933H277.27Z" fill="#1B8354"/>
<path d="M366.11 15.8077C361.84 11.2946 357.97 7.19477 353.78 2.74864C354.64 1.94432 355.29 1.34107 355.73 0.927734C360.48 6.22287 365.03 11.3058 369.27 16.0423C364.99 20.8459 360.46 25.9176 355.68 31.2686C355.51 31.1122 354.82 30.442 353.93 29.5706C357.93 25.0463 361.75 20.7231 366.11 15.8077Z" fill="#D6A428"/>
<path d="M336.64 1.06055C336.97 1.40685 337.53 1.9766 338.43 2.89264C334.54 7.26056 330.73 11.5391 326.59 16.1751C330.41 20.6995 334.35 24.844 338.3 29.413C337.59 30.262 336.97 31.0105 336.54 31.5355C331.83 26.2627 327.29 21.1798 322.95 16.3316C327.24 11.5391 331.79 6.46739 336.64 1.06055Z" fill="#D6A428"/>
<path d="M444.85 8.76902H440.04C440.04 6.98163 440.04 5.31714 440.04 3.33984C441.5 3.33984 443.07 3.33984 444.85 3.33984C444.85 5.07138 444.85 6.72469 444.85 8.76902Z" fill="#1B8354"/>
<path d="M387.83 3.33984C387.83 5.11606 387.83 6.69121 387.83 8.59031H383.09C383.09 6.99283 383.09 5.32831 383.09 3.33984C384.49 3.33984 385.98 3.33984 387.83 3.33984Z" fill="#1B8354"/>
<path d="M248.78 8.67997V3.30664C250.38 3.30664 251.88 3.30664 253.64 3.30664C253.64 4.9488 253.64 6.70267 253.64 8.67997C252.08 8.67997 250.59 8.67997 248.78 8.67997Z" fill="#1B8354"/>
<path d="M444.74 29.1791C443.22 29.1791 441.73 29.1791 440.01 29.1791C440.01 27.4588 440.01 25.7943 440.01 23.8281C441.47 23.8281 442.95 23.8281 444.74 23.8281C444.74 25.4591 444.74 27.2018 444.74 29.1791Z" fill="#1B8354"/>
<path d="M382.98 29.0777V23.8496C384.49 23.8496 385.96 23.8496 387.71 23.8496C387.71 25.4247 387.71 27.0893 387.71 29.0777C386.32 29.0777 384.84 29.0777 382.98 29.0777Z" fill="#1B8354"/>
<path d="M310.63 29.2456C309.01 29.2456 307.6 29.2456 305.96 29.2456C305.96 27.4582 305.96 25.7825 305.96 23.8164C307.43 23.8164 308.91 23.8164 310.63 23.8164V29.2456Z" fill="#1B8354"/>
<path d="M248.83 29.034C248.83 27.1014 248.83 25.5374 248.83 23.75C250.49 23.75 251.97 23.75 253.68 23.75C253.68 25.515 253.68 27.1796 253.68 29.034H248.83Z" fill="#1B8354"/>
<path d="M305.99 3.20703C307.54 3.20703 308.94 3.20703 310.61 3.20703C310.61 4.90505 310.61 6.56954 310.61 8.56918C309.21 8.56918 307.74 8.56918 305.99 8.56918C305.99 6.99404 305.99 5.32955 305.99 3.20703Z" fill="#1B8354"/>
<path d="M263.59 18.8672C263.59 20.5652 263.59 22.0175 263.59 23.8049H258.71V18.8672C260.32 18.8672 261.87 18.8672 263.59 18.8672Z" fill="#1B8354"/>
<path d="M435.09 18.834C435.09 20.6661 435.09 22.1183 435.09 23.861C433.44 23.861 431.87 23.861 430.13 23.861C430.13 22.163 430.13 20.6325 430.13 18.834C431.79 18.834 433.28 18.834 435.09 18.834Z" fill="#1B8354"/>
<path d="M439.94 19.1363C439.94 17.0361 439.94 15.4833 439.94 13.6289C441.6 13.6289 443.15 13.6289 444.87 13.6289C444.87 15.4163 444.87 16.9579 444.87 18.8906C443.28 18.9688 441.79 19.047 439.94 19.1363Z" fill="#1B8354"/>
<path d="M421.34 13.584H426.05C426.05 15.349 426.05 16.9018 426.05 18.7786H421.34C421.34 17.1364 421.34 15.4831 421.34 13.584Z" fill="#1B8354"/>
<path d="M406.59 13.5723C406.59 15.4937 406.59 17.0353 406.59 18.8451C404.93 18.8451 403.45 18.8451 401.74 18.8451C401.74 17.1359 401.74 15.4825 401.74 13.5723C403.31 13.5723 404.79 13.5723 406.59 13.5723Z" fill="#1B8354"/>
<path d="M383 19.1586C383 17.0138 383 15.4721 383 13.6289C384.59 13.6289 386.06 13.6289 387.76 13.6289C387.76 15.2822 387.76 16.8239 387.76 18.8235C386.34 18.924 384.88 19.0246 383 19.1586Z" fill="#1B8354"/>
<path d="M310.65 18.8459C309.02 18.8459 307.55 18.8459 305.9 18.8459C305.9 17.0361 305.9 15.4945 305.9 13.6289H310.65C310.65 15.3381 310.65 16.9914 310.65 18.8459Z" fill="#1B8354"/>
<path d="M287.16 13.5723H291.98C291.98 15.3373 291.98 16.9906 291.98 18.8786C290.36 18.8786 288.88 18.8786 287.16 18.8786C287.16 17.0912 287.16 15.4602 287.16 13.5723Z" fill="#1B8354"/>
<path d="M267.63 18.7897C267.63 16.9241 267.63 15.3714 267.63 13.584C269.28 13.584 270.76 13.584 272.41 13.584V18.7897C270.88 18.7897 269.4 18.7897 267.63 18.7897Z" fill="#1B8354"/>
<path d="M253.74 13.2715C253.74 15.3382 253.74 16.9021 253.74 18.7789C252.15 18.7789 250.6 18.7789 248.85 18.7789C248.85 17.0808 248.85 15.528 248.85 13.5731C250.37 13.4837 251.85 13.3832 253.74 13.2715Z" fill="#1B8354"/>
<path d="M430.11 8.47852H435C435 10.1654 435 11.707 435 13.5614C433.39 13.5614 431.83 13.5614 430.11 13.5614C430.11 11.8522 430.11 10.4111 430.11 8.47852Z" fill="#1B8354"/>
<path d="M263.63 8.51172C263.63 10.2879 263.63 11.729 263.63 13.5834C262.06 13.684 260.58 13.7845 258.79 13.9074C258.79 12.0083 258.79 10.3885 258.79 8.51172C260.29 8.51172 261.78 8.51172 263.63 8.51172Z" fill="#1B8354"/>
<path d="M397.48 18.8242C397.48 20.6675 397.48 22.1309 397.48 23.8624C396.01 23.8624 394.62 23.8624 392.91 23.8624V18.8242C394.37 18.8242 395.75 18.8242 397.48 18.8242Z" fill="#1B8354"/>
<path d="M296.23 23.9056C296.23 22.1629 296.23 20.7107 296.23 18.9121C297.75 18.9121 299.2 18.9121 300.88 18.9121C300.88 20.5766 300.88 22.1182 300.88 23.9056C299.38 23.9056 297.99 23.9056 296.23 23.9056Z" fill="#1B8354"/>
<path d="M392.84 8.41211C394.46 8.41211 395.77 8.41211 397.34 8.41211C397.34 10.1213 397.34 11.7634 397.34 13.629C395.84 13.629 394.46 13.629 392.84 13.629C392.84 11.8863 392.84 10.3447 392.84 8.41211Z" fill="#1B8354"/>
<path d="M300.8 13.6181C299.29 13.6181 297.91 13.6181 296.31 13.6181C296.31 11.9089 296.31 10.3561 296.31 8.53516C297.72 8.53516 299.11 8.53516 300.8 8.53516V13.6181Z" fill="#1B8354"/>
<path d="M32.9198 13.6392C31.3398 13.6392 29.9498 13.6392 28.2798 13.6392V8.58984C29.6898 8.58984 31.1598 8.58984 32.9198 8.58984C32.9198 10.098 32.9198 11.6284 32.9198 13.6392Z" fill="#1B8354"/>
<path d="M1420.49 32.4075C1415.71 27.0677 1410.76 21.538 1405.98 16.1982C1410.74 10.8807 1415.7 5.35099 1420.5 0C1425.29 5.33982 1430.24 10.8584 1435.07 16.254C1430.26 21.5939 1425.29 27.1012 1420.5 32.4187L1420.49 32.4075ZM1420.44 27.5481C1423.9 23.6829 1427.26 19.907 1430.42 16.3658C1427.1 12.6681 1423.66 8.83639 1420.55 5.37333C1417.32 8.98162 1413.9 12.8022 1410.64 16.444C1413.75 19.9741 1417.09 23.7611 1420.43 27.5593L1420.44 27.5481Z" fill="#D6A428"/>
<path d="M1356.29 29.9825C1354.5 29.9825 1353.07 29.9825 1351.44 29.9825C1351.44 20.7775 1351.44 11.7511 1351.44 2.49023C1353.09 2.49023 1354.59 2.49023 1356.29 2.49023C1356.29 11.6506 1356.29 20.6881 1356.29 29.9825Z" fill="#1B8354"/>
<path d="M1397.22 15.9077C1401.45 11.1712 1405.93 6.13295 1410.59 0.916016C1411.1 1.39638 1411.74 1.99965 1412.74 2.93803C1408.78 7.39533 1404.95 11.6962 1400.94 16.2094C1404.89 20.6443 1408.66 24.8782 1412.58 29.2796C1411.86 30.1845 1411.31 30.8883 1411 31.2793C1406.35 26.0847 1401.79 21.0018 1397.22 15.9077Z" fill="#D6A428"/>
<path d="M1443.71 16.5789C1439.56 21.2261 1435.07 26.2419 1430.35 31.5147C1429.84 31.0232 1429.14 30.3529 1428.21 29.4481C1432.15 25.0131 1435.91 20.7792 1439.97 16.2102C1436.06 11.8199 1432.24 7.53023 1428.29 3.09527C1429.03 2.22392 1429.62 1.54248 1429.93 1.17383C1434.57 6.36842 1439.12 11.4401 1443.71 16.5789Z" fill="#D6A428"/>
<path d="M1385.13 3.25C1385.13 5.16027 1385.13 6.73538 1385.13 8.60097C1383.55 8.60097 1382.07 8.60097 1380.29 8.60097C1380.29 6.96998 1380.29 5.2273 1380.29 3.25C1381.81 3.25 1383.3 3.25 1385.13 3.25Z" fill="#1B8354"/>
<path d="M1323.3 3.2168C1324.82 3.2168 1326.22 3.2168 1327.9 3.2168C1327.9 4.98184 1327.9 6.72454 1327.9 8.69066H1323.3C1323.3 7.01499 1323.3 5.36166 1323.3 3.2168Z" fill="#1B8354"/>
<path d="M1385.11 23.8496C1385.11 25.7375 1385.11 27.3015 1385.11 29.1336C1383.5 29.1336 1382.01 29.1336 1380.25 29.1336C1380.25 27.4467 1380.25 25.704 1380.25 23.8496C1381.93 23.8496 1383.49 23.8496 1385.11 23.8496Z" fill="#1B8354"/>
<path d="M1323.28 23.7168C1324.86 23.7168 1326.26 23.7168 1327.92 23.7168C1327.92 25.4595 1327.92 27.124 1327.92 29.1013C1326.51 29.1013 1325.03 29.1013 1323.28 29.1013C1323.28 27.515 1323.28 25.8393 1323.28 23.7168Z" fill="#1B8354"/>
<path d="M1385.06 18.8562C1383.29 18.8562 1381.81 18.8562 1380.16 18.8562C1380.16 17.0576 1380.16 15.516 1380.16 13.6504C1381.79 13.6504 1383.33 13.6504 1385.06 13.6504V18.8562Z" fill="#1B8354"/>
<path d="M1361.49 13.5059H1366.2C1366.2 15.2932 1366.2 16.9466 1366.2 18.8569C1364.62 18.8569 1363.15 18.8569 1361.49 18.8569C1361.49 17.0806 1361.49 15.539 1361.49 13.5059Z" fill="#1B8354"/>
<path d="M1346.71 18.9584C1345.05 18.9584 1343.65 18.9584 1341.98 18.9584C1341.98 17.1822 1341.98 15.5512 1341.98 13.6074C1343.49 13.6074 1344.97 13.6074 1346.71 13.6074C1346.71 15.339 1346.71 17.0705 1346.71 18.9584Z" fill="#1B8354"/>
<path d="M1327.97 13.5957C1327.97 15.3049 1327.97 16.8577 1327.97 18.8573C1326.5 18.9355 1325.03 19.0026 1323.29 19.0919V13.5957C1324.83 13.5957 1326.3 13.5957 1327.97 13.5957Z" fill="#1B8354"/>
<path d="M1370.53 18.7793C1372.2 18.7793 1373.59 18.7793 1375.22 18.7793V23.8733C1373.73 23.8733 1372.25 23.8733 1370.53 23.8733C1370.53 22.2759 1370.53 20.7343 1370.53 18.7793Z" fill="#1B8354"/>
<path d="M1337.6 23.9504H1333.05C1333.05 22.1965 1333.05 20.6437 1333.05 18.834C1334.56 18.834 1335.94 18.834 1337.6 18.834C1337.6 20.4538 1337.6 22.0066 1337.6 23.9504Z" fill="#1B8354"/>
<path d="M1375.2 13.6392C1373.62 13.6392 1372.23 13.6392 1370.56 13.6392V8.58984C1371.97 8.58984 1373.44 8.58984 1375.2 8.58984C1375.2 10.098 1375.2 11.6284 1375.2 13.6392Z" fill="#1B8354"/>
<path d="M1333.13 8.4668C1334.63 8.4668 1336.02 8.4668 1337.64 8.4668C1337.64 10.176 1337.64 11.7176 1337.64 13.5608C1336.17 13.5608 1334.78 13.5608 1333.13 13.5608C1333.13 12.0416 1333.13 10.4888 1333.13 8.4668Z" fill="#1B8354"/>
</svg>
