<svg xmlns="http://www.w3.org/2000/svg" id="Layer_1" data-name="Layer 1" viewBox="0 0 159.6 69.93"><defs><style>.cls-1{fill:#016098;}</style></defs><path class="cls-1" d="M55.81,9.06a1.92,1.92,0,0,0-.72-.38,3.43,3.43,0,0,0-.86-.11,3.34,3.34,0,0,0-.84.11,2,2,0,0,0-.73.38,1.86,1.86,0,0,0-.5.71A2.82,2.82,0,0,0,52,10.89a2.19,2.19,0,0,0,.16.93H49.4A.52.52,0,0,1,49,11.7a.6.6,0,0,1-.11-.43V9.5c0-.07,0-.1-.11-.1H47.55a.09.09,0,0,0-.1.1v2.26a1.42,1.42,0,0,0,.28,1,1.16,1.16,0,0,0,.92.31h5.58a3.71,3.71,0,0,0,.9-.1,1.75,1.75,0,0,0,.71-.35,1.78,1.78,0,0,0,.48-.67,2.6,2.6,0,0,0,.17-1,3,3,0,0,0-.18-1.12A1.86,1.86,0,0,0,55.81,9.06Zm-1,2.58a.86.86,0,0,1-.63.22.82.82,0,0,1-.63-.23,1.21,1.21,0,0,1-.21-.82c0-.67.28-1,.84-1s.84.34.84,1A1.16,1.16,0,0,1,54.86,11.64Z" transform="translate(-9.07 -5.04)"></path><rect class="cls-1" x="44.46" y="1.46" width="1.47" height="1.21" rx="0.1"></rect><rect class="cls-1" x="48.53" y="1.05" width="1.44" height="6.96" rx="0.1"></rect><path class="cls-1" d="M71.08,8.74H69.83a.1.1,0,0,0-.11.11v2.23c0,.13,0,.25,0,.34a.41.41,0,0,1-.06.23.26.26,0,0,1-.15.12.78.78,0,0,1-.3.05,1,1,0,0,1-.47-.11c-.15-.07-.21-.23-.21-.46V9.58c0-.07,0-.1-.11-.1H67.16a.09.09,0,0,0-.1.1v1.51a3.33,3.33,0,0,1,0,.34.57.57,0,0,1-.07.22.27.27,0,0,1-.17.12.87.87,0,0,1-.31.05.84.84,0,0,1-.45-.12.45.45,0,0,1-.21-.44V9.58c0-.07,0-.1-.1-.1H64.49c-.07,0-.1,0-.1.1v1.54a1.34,1.34,0,0,1-.08.55c-.06.1-.18.15-.38.15H63a.91.91,0,0,1-.56-.15.52.52,0,0,1-.22-.41V8.85a.1.1,0,0,0-.1-.11H60.89a.1.1,0,0,0-.11.11v3.74a5,5,0,0,1,0,.57,1.18,1.18,0,0,1-.09.41.65.65,0,0,1-.23.26.89.89,0,0,1-.43.08h-.23c-.07,0-.1,0-.1.11v1c0,.07,0,.1.1.1h.47a1.89,1.89,0,0,0,1.54-.55,2.75,2.75,0,0,0,.45-1.73v-.16a.81.81,0,0,0,.42.28,2.46,2.46,0,0,0,.58.06h1.23a2.46,2.46,0,0,0,.81-.1.78.78,0,0,0,.43-.44,1,1,0,0,0,.39.4,1.28,1.28,0,0,0,.65.14h.4a2.2,2.2,0,0,0,.8-.11.76.76,0,0,0,.43-.43,1,1,0,0,0,.39.4,1.23,1.23,0,0,0,.65.14H70a1.16,1.16,0,0,0,.92-.31,1.42,1.42,0,0,0,.28-1V8.85A.1.1,0,0,0,71.08,8.74Z" transform="translate(-9.07 -5.04)"></path><rect class="cls-1" x="58.84" y="1.46" width="1.24" height="1.21" rx="0.1"></rect><rect class="cls-1" x="58.06" width="1.23" height="1.21" rx="0.1"></rect><rect class="cls-1" x="57.27" y="1.46" width="1.23" height="1.21" rx="0.1"></rect><rect class="cls-1" x="63.32" y="1.05" width="1.44" height="6.96" rx="0.1"></rect><path class="cls-1" d="M74.19,15.34h-1a1,1,0,0,1-.21-.21.54.54,0,0,1-.09-.31.45.45,0,0,1,.12-.33.44.44,0,0,1,.32-.12.63.63,0,0,1,.48.23.06.06,0,0,0,.1,0l.31-.32a.06.06,0,0,0,0-.09,1,1,0,0,0-.38-.29,1.25,1.25,0,0,0-.56-.12,1.29,1.29,0,0,0-.51.09.93.93,0,0,0-.34.23.9.9,0,0,0-.2.34.94.94,0,0,0-.07.37.92.92,0,0,0,0,.29,1.86,1.86,0,0,0,.1.25H71.9s-.06,0-.06.07v.46c0,.05,0,.07.06.07h2.29s.06,0,.06-.07v-.46C74.25,15.36,74.23,15.34,74.19,15.34Z" transform="translate(-9.07 -5.04)"></path><rect class="cls-1" x="70.76" y="2.07" width="1.23" height="1.21" rx="0.1"></rect><rect class="cls-1" x="72.34" y="2.07" width="1.24" height="1.21" rx="0.1"></rect><rect class="cls-1" x="84.81" y="1.46" width="1.24" height="1.21" rx="0.1"></rect><path class="cls-1" d="M94.4,8.74H93.16c-.07,0-.1,0-.1.11v2.42a.6.6,0,0,1-.12.43.5.5,0,0,1-.37.12H91.7a.88.88,0,0,1-.55-.15.52.52,0,0,1-.22-.39v-.16a3.63,3.63,0,0,0-.13-1,2.11,2.11,0,0,0-.43-.81,1.91,1.91,0,0,0-.75-.54,3,3,0,0,0-1.15-.19,2.53,2.53,0,0,0-1.11.23,3.12,3.12,0,0,0-.81.59s0,.09,0,.15l.6.73a.1.1,0,0,0,.15,0,1.86,1.86,0,0,1,.47-.32,1.21,1.21,0,0,1,.58-.13,1.09,1.09,0,0,1,.5.1.82.82,0,0,1,.32.26,1,1,0,0,1,.17.4,1.86,1.86,0,0,1,.06.48,1.82,1.82,0,0,1,0,.37.42.42,0,0,1-.36.36,2.15,2.15,0,0,1-.4,0H85.89a.93.93,0,0,1-.56-.15.52.52,0,0,1-.22-.39V8.85c0-.07,0-.11-.1-.11H83.76c-.07,0-.1,0-.1.11v2.2a1.38,1.38,0,0,1-.09.6c0,.11-.19.17-.41.17H79.33A.48.48,0,0,1,79,11.7a.6.6,0,0,1-.12-.43V9.5c0-.07,0-.1-.11-.1H77.49c-.07,0-.11,0-.11.1v2.26a1.47,1.47,0,0,0,.28,1,1.16,1.16,0,0,0,.92.31h5.09a2.78,2.78,0,0,0,.85-.1.75.75,0,0,0,.45-.41.87.87,0,0,0,.48.42,2.26,2.26,0,0,0,.56.09H89.2a3,3,0,0,0,.89-.12,1,1,0,0,0,.57-.5,1,1,0,0,0,.53.51,2.1,2.1,0,0,0,.74.11h1.38a1.18,1.18,0,0,0,.92-.31,1.47,1.47,0,0,0,.27-1V8.85C94.5,8.78,94.47,8.74,94.4,8.74Z" transform="translate(-9.07 -5.04)"></path><rect class="cls-1" x="83.24" y="1.46" width="1.23" height="1.21" rx="0.1"></rect><rect class="cls-1" x="91.42" y="1.05" width="1.24" height="1.21" rx="0.1"></rect><rect class="cls-1" x="89.84" y="1.05" width="1.23" height="1.21" rx="0.1"></rect><rect class="cls-1" x="94.78" y="8.91" width="1.23" height="1.21" rx="0.1"></rect><rect class="cls-1" x="96.35" y="8.91" width="1.24" height="1.21" rx="0.1"></rect><rect class="cls-1" x="111.98" y="8.89" width="1.47" height="1.21" rx="0.1"></rect><path class="cls-1" d="M127.36,6.09h-1.25a.1.1,0,0,0-.11.1v5.08a.65.65,0,0,1-.11.43.52.52,0,0,1-.38.12h-.59a.88.88,0,0,1-.55-.15.52.52,0,0,1-.22-.39v-.16a3.63,3.63,0,0,0-.13-1,2.11,2.11,0,0,0-.43-.81,1.94,1.94,0,0,0-.76-.54,3,3,0,0,0-1.14-.19,2.53,2.53,0,0,0-1.11.23,3.12,3.12,0,0,0-.81.59s0,.09,0,.15l.6.73a.1.1,0,0,0,.15,0,1.86,1.86,0,0,1,.47-.32,1.21,1.21,0,0,1,.58-.13,1.09,1.09,0,0,1,.5.1.82.82,0,0,1,.32.26,1,1,0,0,1,.17.4,1.86,1.86,0,0,1,0,.48,1.9,1.9,0,0,1,0,.37.42.42,0,0,1-.36.36,2.15,2.15,0,0,1-.4,0H119a.66.66,0,0,1-.44-.16.72.72,0,0,1-.2-.5s0-.08,0-.13,0-.09,0-.14a2.28,2.28,0,0,0-.62-1.74,2.29,2.29,0,0,0-1.65-.58,2.34,2.34,0,0,0-1.67.55,2,2,0,0,0-.58,1.57v.2a1.07,1.07,0,0,1-.21.73.6.6,0,0,1-.43.2H111.4a3.28,3.28,0,0,0,.68-.68,2.38,2.38,0,0,0,.23-.45,1.53,1.53,0,0,0,.08-.52,1.45,1.45,0,0,0-.13-.63,1.34,1.34,0,0,0-.44-.51,2.36,2.36,0,0,0-.75-.33A4.35,4.35,0,0,0,110,8.57a4.91,4.91,0,0,0-.86.07,5,5,0,0,0-.78.17,2.38,2.38,0,0,0-.55.24c-.15.08-.22.17-.22.26V10a.78.78,0,0,0,0,.24.33.33,0,0,0,.11.15,4.09,4.09,0,0,1,.7.61,2.11,2.11,0,0,1,.46.77,1.59,1.59,0,0,1-.38.07h-1.69a.88.88,0,0,1-.55-.15.52.52,0,0,1-.22-.41V8.85a.1.1,0,0,0-.11-.11h-1.24a.1.1,0,0,0-.1.11V11a2,2,0,0,1-.08.65.41.41,0,0,1-.41.19H103a.5.5,0,0,1-.37-.12.6.6,0,0,1-.12-.43V8.13c0-.07,0-.1-.1-.1h-1.25c-.07,0-.1,0-.1.1v.44h-1a2.86,2.86,0,0,0-.77.1,1.58,1.58,0,0,0-.66.33,1.76,1.76,0,0,0-.47.65,2.52,2.52,0,0,0-.18,1,2.5,2.5,0,0,0,.15.92,1.68,1.68,0,0,0,1.08,1,2.42,2.42,0,0,0,.76.12,2.19,2.19,0,0,0,.63-.1,1.51,1.51,0,0,0,.52-.27.87.87,0,0,0,.37.6,1.71,1.71,0,0,0,.79.15h2.23a3.48,3.48,0,0,0,.89-.09.76.76,0,0,0,.48-.42.87.87,0,0,0,.48.42,2.29,2.29,0,0,0,.68.09h1.55a4.36,4.36,0,0,0,.67-.06,2.68,2.68,0,0,0,.72-.25,2.13,2.13,0,0,0,.63.25,3.88,3.88,0,0,0,.7.06h2a1.89,1.89,0,0,0,.39-.07,1.84,1.84,0,0,0,.38-.17.86.86,0,0,0,.3-.3,1.67,1.67,0,0,0,.76.49,3.55,3.55,0,0,0,1,.14,3.31,3.31,0,0,0,1-.15,1.58,1.58,0,0,0,.77-.52,1.14,1.14,0,0,0,.29.32,1.29,1.29,0,0,0,.35.18,1.61,1.61,0,0,0,.38.08h3.48a3,3,0,0,0,.89-.12,1,1,0,0,0,.57-.5,1,1,0,0,0,.53.51,2.1,2.1,0,0,0,.74.11h1.11a1.16,1.16,0,0,0,.92-.31,1.42,1.42,0,0,0,.28-1V6.19A.09.09,0,0,0,127.36,6.09Zm-26.27,4.42a1,1,0,0,1-.23.7.88.88,0,0,1-.62.22,1,1,0,0,1-.59-.17.68.68,0,0,1-.24-.59.82.82,0,0,1,.24-.68,1,1,0,0,1,.62-.18h.82Zm9.58.56a2,2,0,0,1-.57.5,2.78,2.78,0,0,0-.39-.87A2.46,2.46,0,0,0,109,10l.35-.12a2.9,2.9,0,0,1,.62-.06,1.28,1.28,0,0,1,.67.15.52.52,0,0,1,.24.48A1,1,0,0,1,110.67,11.07Zm6.1.59a.83.83,0,0,1-.64.23.82.82,0,0,1-.63-.23,1.24,1.24,0,0,1-.21-.82c0-.69.28-1,.84-1s.84.34.84,1A1.31,1.31,0,0,1,116.77,11.66Z" transform="translate(-9.07 -5.04)"></path><rect class="cls-1" x="119.62" y="1.05" width="1.44" height="6.96" rx="0.1"></rect><path class="cls-1" d="M85.68,53.49a4,4,0,0,1-3.43-1.91l-3.47-5.69a1.47,1.47,0,1,1,2.5-1.53l3.47,5.69a1.09,1.09,0,0,0,1.41.4l13-6.59a1.46,1.46,0,0,1,1.33,2.61l-13,6.59a3.85,3.85,0,0,1-1.8.43" transform="translate(-9.07 -5.04)"></path><path class="cls-1" d="M108.21,36.35a3.57,3.57,0,0,0-2.37-1.43l-3.47-.47a1.09,1.09,0,0,1-.65-.36l-6-7.15a3.92,3.92,0,0,0-2.47-1.37L89,25a1,1,0,0,1-.46-.19l-5.44-4a3.73,3.73,0,0,0-1.38-.65l-3.93-1a4,4,0,0,0-4,1.36l-4.19,5.22a4,4,0,0,0-.3,4.54l6.68,11v0l0,.07,0,0,0,.06.06,0,0,.05.06,0,0,0,.06.05.06,0,.06,0,.06,0,.06,0,.08,0,0,0,.08,0h.06l.08,0h4.51a1.47,1.47,0,0,0,1.43-1.15l1-4.38,2.39,8a1.47,1.47,0,0,0,1.36,1.05h0a1.47,1.47,0,0,0,1.38-1l1.62-4.49.22.73a1.47,1.47,0,0,0,1.41,1h4.86a1.47,1.47,0,0,0,0-2.93H93.36L92.18,35a1.47,1.47,0,0,0-2.78-.08l-1.61,4.46L85,30.14a1.46,1.46,0,0,0-2.83.11L80.29,39H78L71.78,28.79a1.06,1.06,0,0,1,.08-1.19l4.2-5.21a1,1,0,0,1,1-.35L81,23a1.12,1.12,0,0,1,.37.16l5.43,4a3.88,3.88,0,0,0,1.78.73l4.22.6a1,1,0,0,1,.65.36l6,7.14A3.93,3.93,0,0,0,102,37.35l3.47.48a.56.56,0,0,1,.39.24.54.54,0,0,1,.11.45l-.37,2a.2.2,0,0,1-.09.13l-1.88,1a1.46,1.46,0,0,0-.64,2,1.45,1.45,0,0,0,1.3.8,1.47,1.47,0,0,0,.67-.16l1.87-1A3.14,3.14,0,0,0,108.45,41l.37-2a3.55,3.55,0,0,0-.61-2.7" transform="translate(-9.07 -5.04)"></path><path class="cls-1" d="M23.89,72.12h.46l.07.64a4.24,4.24,0,0,0,1,.13c.8,0,1.25-.32,1.25-1s-.4-.88-1.18-1.13-1.58-.55-1.58-1.59.71-1.51,1.84-1.51a5.27,5.27,0,0,1,1.39.21v1h-.46l-.07-.65a4.43,4.43,0,0,0-.87-.1c-.78,0-1.16.36-1.16,1s.45.84,1.16,1.08,1.6.55,1.6,1.64-.63,1.57-1.9,1.57a5.63,5.63,0,0,1-1.57-.24l0-1" transform="translate(-9.07 -5.04)"></path><path class="cls-1" d="M30.27,73a2,2,0,0,1-1.15.39,1.06,1.06,0,0,1-1.18-1.13c0-.88.65-1.15,1.5-1.15.26,0,.6,0,.77,0v-.43c0-.54-.14-.81-.86-.81a4.53,4.53,0,0,0-1,.13l-.08-.45a5.15,5.15,0,0,1,1.18-.15c.95,0,1.37.33,1.37,1.21v2.23l.41.08v.35h-.89L30.27,73m-.06-1.43c-.16,0-.49,0-.69,0-.69,0-1,.2-1,.71a.65.65,0,0,0,.73.7,1.73,1.73,0,0,0,.94-.31Z" transform="translate(-9.07 -5.04)"></path><path class="cls-1" d="M32.05,70l-.42-.08v-.35h1v2.53c0,.47.11.87.64.87a2.5,2.5,0,0,0,1.09-.35V70L34,69.88v-.35h1v3.35l.43.08v.35h-.92L34.42,73a2.67,2.67,0,0,1-1.3.4c-.82,0-1.07-.52-1.07-1.27V70" transform="translate(-9.07 -5.04)"></path><path class="cls-1" d="M38.52,73a2.15,2.15,0,0,1-1.16.36c-1.12,0-1.3-1-1.3-1.9,0-1.1.27-2,1.41-2a2,2,0,0,1,1,.26V68.14L38,68.06v-.35h1v5.17l.42.08v.35h-.93l0-.28m-.05-2.92a2.23,2.23,0,0,0-.89-.21c-.68,0-.92.48-.92,1.54,0,.82.14,1.47.86,1.47a2,2,0,0,0,.95-.3Z" transform="translate(-9.07 -5.04)"></path><path class="cls-1" d="M40,73l.43-.08V70L40,69.88v-.35h1v3.35l.42.08v.35H40V73m.43-5.25H41v.89h-.59Z" transform="translate(-9.07 -5.04)"></path><path class="cls-1" d="M47.62,73.21a6.55,6.55,0,0,1-1.46.18c-1.9,0-2.22-1.14-2.22-2.83s.34-2.93,2.23-2.93a5.69,5.69,0,0,1,1.43.19l0,1.06h-.46l-.06-.67a4.41,4.41,0,0,0-.83-.08c-1.43,0-1.62.85-1.62,2.42,0,1.41.15,2.32,1.66,2.32a7.36,7.36,0,0,0,1.26-.15l.1.49" transform="translate(-9.07 -5.04)"></path><path class="cls-1" d="M48.36,71.44c0-1.27.3-2,1.57-2s1.57.77,1.57,2-.29,2-1.57,2-1.57-.76-1.57-2m2.54,0c0-.91-.08-1.49-1-1.49s-1,.57-1,1.53.08,1.49,1,1.49S50.9,72.36,50.9,71.4Z" transform="translate(-9.07 -5.04)"></path><path class="cls-1" d="M52.21,73l.42-.08V70l-.42-.08v-.35h.9l0,.25a2.5,2.5,0,0,1,1.15-.34.92.92,0,0,1,.85.4,2.58,2.58,0,0,1,1.28-.4c.81,0,1,.54,1,1.19v2.25l.46.08v.35H56.87V70.77c0-.48-.1-.85-.62-.85a2.16,2.16,0,0,0-1,.27,3,3,0,0,1,0,.44v2.25l.45.08v.35h-1V70.77c0-.48-.09-.85-.62-.85a2.28,2.28,0,0,0-.9.24v2.72l.42.08v.35H52.21V73" transform="translate(-9.07 -5.04)"></path><path class="cls-1" d="M58.37,73l.42-.08V70l-.42-.08v-.35h.91l0,.25a2.54,2.54,0,0,1,1.16-.34.93.93,0,0,1,.85.4,2.51,2.51,0,0,1,1.27-.4c.82,0,1,.54,1,1.19v2.25l.47.08v.35H63V70.77c0-.48-.09-.85-.62-.85a2.2,2.2,0,0,0-.95.27,3,3,0,0,1,0,.44v2.25L62,73v.35h-1V70.77c0-.48-.1-.85-.62-.85a2.24,2.24,0,0,0-.9.24v2.72l.42.08v.35H58.37V73" transform="translate(-9.07 -5.04)"></path><path class="cls-1" d="M64.53,73l.42-.08V70l-.42-.08v-.35h1v3.35L66,73v.35H64.53V73M65,67.71h.6v.89H65Z" transform="translate(-9.07 -5.04)"></path><path class="cls-1" d="M66.65,72.33h.43l.06.53a3.06,3.06,0,0,0,.7.08c.58,0,.9-.18.9-.62s-.33-.54-.84-.69c-.66-.19-1.27-.38-1.27-1.11s.6-1.08,1.44-1.08a4,4,0,0,1,1.11.17l0,.88h-.44l0-.54a3.66,3.66,0,0,0-.57,0c-.59,0-.87.21-.87.58s.32.5.87.66,1.23.36,1.23,1.14-.53,1.11-1.49,1.11a4.36,4.36,0,0,1-1.22-.18l0-.88" transform="translate(-9.07 -5.04)"></path><path class="cls-1" d="M70.09,72.33h.43l.06.53a3.19,3.19,0,0,0,.7.08c.58,0,.9-.18.9-.62s-.33-.54-.84-.69-1.26-.38-1.26-1.11.6-1.08,1.43-1.08a4,4,0,0,1,1.11.17l0,.88h-.44l0-.54a3.77,3.77,0,0,0-.57,0c-.6,0-.87.21-.87.58s.31.5.87.66,1.23.36,1.23,1.14-.53,1.11-1.5,1.11a4.34,4.34,0,0,1-1.21-.18l0-.88" transform="translate(-9.07 -5.04)"></path><path class="cls-1" d="M73.37,73l.42-.08V70l-.42-.08v-.35h1v3.35l.42.08v.35H73.37V73m.42-5.25h.6v.89h-.6Z" transform="translate(-9.07 -5.04)"></path><path class="cls-1" d="M75.48,71.44c0-1.27.3-2,1.57-2s1.57.77,1.57,2-.3,2-1.57,2-1.57-.76-1.57-2m2.54,0c0-.91-.09-1.49-1-1.49s-1,.57-1,1.53.09,1.49,1,1.49S78,72.36,78,71.4Z" transform="translate(-9.07 -5.04)"></path><path class="cls-1" d="M79.32,73l.42-.08V70l-.42-.08v-.35h.91l.06.34a2.8,2.8,0,0,1,1.35-.43c.81,0,1,.54,1,1.19v2.25l.46.08v.35H82.07V70.77c0-.48-.1-.85-.62-.85a2.65,2.65,0,0,0-1.11.34v2.62l.42.08v.35H79.32V73" transform="translate(-9.07 -5.04)"></path><path class="cls-1" d="M85.44,73l.42-.08V70H85.3v-.36l.56-.1v-.85c0-.75.39-1.05,1.15-1.05a2.84,2.84,0,0,1,.58.05l0,.45a4.07,4.07,0,0,0-.47,0c-.51,0-.62.23-.62.59v.85h.88V70h-.88v2.89L87,73v.35H85.44V73" transform="translate(-9.07 -5.04)"></path><path class="cls-1" d="M87.86,71.44c0-1.27.29-2,1.57-2s1.57.77,1.57,2-.3,2-1.57,2-1.57-.76-1.57-2m2.53,0c0-.91-.08-1.49-1-1.49s-1,.57-1,1.53.08,1.49,1,1.49S90.39,72.36,90.39,71.4Z" transform="translate(-9.07 -5.04)"></path><path class="cls-1" d="M91.7,73l.42-.08V70l-.42-.08v-.35h.91l.07.52a1.46,1.46,0,0,1,1.1-.58l.27,0L94,70l-.26,0a1.51,1.51,0,0,0-1,.47v2.42l.53.08v.35H91.7V73" transform="translate(-9.07 -5.04)"></path><polyline class="cls-1" points="87.23 67.92 87.71 67.84 87.71 63.1 87.23 63.03 87.23 62.67 88.84 62.67 88.84 63.03 88.36 63.1 88.36 65.13 90.97 65.13 90.97 63.1 90.49 63.03 90.49 62.67 92.1 62.67 92.1 63.03 91.62 63.1 91.62 67.84 92.1 67.92 92.1 68.28 90.49 68.28 90.49 67.92 90.97 67.84 90.97 65.63 88.36 65.63 88.36 67.84 88.84 67.92 88.84 68.28 87.23 68.28 87.23 67.92"></polyline><path class="cls-1" d="M104.71,73.2a5.19,5.19,0,0,1-1.27.19c-1.13,0-1.55-.69-1.55-1.9s.29-2,1.53-2c1,0,1.37.59,1.37,1.67v.5h-2.3c0,.87.26,1.32,1.05,1.32a3.75,3.75,0,0,0,1.07-.18l.1.45m-.49-2c0-.76-.08-1.26-.82-1.26s-.87.35-.91,1.26Z" transform="translate(-9.07 -5.04)"></path><path class="cls-1" d="M107.81,73a2,2,0,0,1-1.15.39,1.06,1.06,0,0,1-1.18-1.13c0-.88.65-1.15,1.5-1.15.26,0,.6,0,.77,0v-.43c0-.54-.14-.81-.86-.81a4.53,4.53,0,0,0-1,.13l-.08-.45a5.15,5.15,0,0,1,1.18-.15c1,0,1.37.33,1.37,1.21v2.23l.41.08v.35h-.89l0-.31m-.06-1.43c-.15,0-.49,0-.69,0-.69,0-1,.2-1,.71a.65.65,0,0,0,.73.7,1.73,1.73,0,0,0,.94-.31Z" transform="translate(-9.07 -5.04)"></path><polyline class="cls-1" points="100.16 67.92 100.58 67.84 100.58 63.1 100.16 63.03 100.16 62.67 101.17 62.67 101.17 67.84 101.59 67.92 101.59 68.28 100.16 68.28 100.16 67.92"></polyline><path class="cls-1" d="M111.64,70h-.57v-.36l.6-.1.12-1h.44v1h1V70h-1v2.33c0,.38.13.61.54.61a1.74,1.74,0,0,0,.39-.05l.07.44a2.63,2.63,0,0,1-.58.07c-.68,0-1-.28-1-1V70" transform="translate(-9.07 -5.04)"></path><path class="cls-1" d="M113.61,73l.42-.08V68.14l-.42-.08v-.35h1v2.13a2.73,2.73,0,0,1,1.29-.4c.82,0,1,.54,1,1.19v2.25l.46.08v.35h-1.06V70.77c0-.48-.09-.85-.62-.85a2.61,2.61,0,0,0-1.1.34v2.62l.42.08v.35h-1.44V73" transform="translate(-9.07 -5.04)"></path><path class="cls-1" d="M119.76,72.12h.46l.07.64a4.15,4.15,0,0,0,1,.13c.81,0,1.26-.32,1.26-1s-.4-.88-1.18-1.13-1.59-.55-1.59-1.59.72-1.51,1.84-1.51a5.27,5.27,0,0,1,1.39.21v1h-.46l-.06-.65a4.52,4.52,0,0,0-.87-.1c-.78,0-1.17.36-1.17,1s.46.84,1.17,1.08,1.6.55,1.6,1.64-.63,1.57-1.9,1.57a5.63,5.63,0,0,1-1.57-.24l0-1" transform="translate(-9.07 -5.04)"></path><path class="cls-1" d="M123.74,74.61l.42-.08V70l-.42-.08v-.35h.91l0,.29a2.23,2.23,0,0,1,1.18-.38c1.09,0,1.29,1,1.29,1.92s-.26,2-1.41,2a2.07,2.07,0,0,1-1-.24v1.38l.43.08V75h-1.45v-.35m1-1.88a2.37,2.37,0,0,0,.89.21c.69,0,.91-.49.91-1.55,0-.81-.13-1.47-.85-1.47a2,2,0,0,0-.95.3Z" transform="translate(-9.07 -5.04)"></path><path class="cls-1" d="M130.83,73.2a5.19,5.19,0,0,1-1.27.19c-1.13,0-1.55-.69-1.55-1.9s.29-2,1.52-2c1.06,0,1.38.59,1.38,1.67v.5h-2.3c0,.87.26,1.32,1,1.32a3.81,3.81,0,0,0,1.07-.18l.1.45m-.49-2c0-.76-.08-1.26-.82-1.26s-.87.35-.91,1.26Z" transform="translate(-9.07 -5.04)"></path><path class="cls-1" d="M134.46,73.21a4.77,4.77,0,0,1-1.23.18c-1.22,0-1.51-.75-1.51-2s.3-2,1.58-2a4.82,4.82,0,0,1,1.12.15l0,.92h-.46l-.05-.55a3.55,3.55,0,0,0-.57,0c-.86,0-1,.53-1,1.49s.15,1.53,1,1.53a3.73,3.73,0,0,0,1-.16l.1.44" transform="translate(-9.07 -5.04)"></path><path class="cls-1" d="M135.08,73l.42-.08V70l-.42-.08v-.35h1v3.35l.42.08v.35h-1.43V73m.42-5.25h.59v.89h-.59Z" transform="translate(-9.07 -5.04)"></path><path class="cls-1" d="M139.39,73a2,2,0,0,1-1.15.39,1.06,1.06,0,0,1-1.18-1.13c0-.88.65-1.15,1.5-1.15.26,0,.6,0,.77,0v-.43c0-.54-.14-.81-.86-.81a4.53,4.53,0,0,0-1,.13l-.08-.45a5.15,5.15,0,0,1,1.18-.15c.95,0,1.37.33,1.37,1.21v2.23l.41.08v.35h-.89l-.05-.31m-.06-1.43c-.16,0-.49,0-.69,0-.69,0-1,.2-1,.71a.65.65,0,0,0,.73.7,1.73,1.73,0,0,0,.94-.31Z" transform="translate(-9.07 -5.04)"></path><polyline class="cls-1" points="131.73 67.92 132.16 67.84 132.16 63.1 131.73 63.03 131.73 62.67 132.75 62.67 132.75 67.84 133.17 67.92 133.17 68.28 131.73 68.28 131.73 67.92"></polyline><path class="cls-1" d="M143.21,70h-.56v-.36l.6-.1.12-1h.44v1h1V70h-1v2.33c0,.38.13.61.54.61a1.74,1.74,0,0,0,.39-.05l.07.44a2.63,2.63,0,0,1-.58.07c-.68,0-1-.28-1-1V70" transform="translate(-9.07 -5.04)"></path><path class="cls-1" d="M145.21,73l.42-.08V70l-.42-.08v-.35h1v3.35l.42.08v.35h-1.43V73m.42-5.25h.59v.89h-.59Z" transform="translate(-9.07 -5.04)"></path><path class="cls-1" d="M150.12,73.2a5.19,5.19,0,0,1-1.27.19c-1.13,0-1.55-.69-1.55-1.9s.29-2,1.52-2c1.06,0,1.38.59,1.38,1.67v.5h-2.3c0,.87.26,1.32,1,1.32a3.75,3.75,0,0,0,1.07-.18l.1.45m-.49-2c0-.76-.08-1.26-.82-1.26s-.87.35-.91,1.26Z" transform="translate(-9.07 -5.04)"></path><path class="cls-1" d="M151,72.33h.43l.06.53a3.06,3.06,0,0,0,.7.08c.58,0,.9-.18.9-.62s-.33-.54-.84-.69S151,71.25,151,70.52s.6-1.08,1.43-1.08a4,4,0,0,1,1.11.17l0,.88h-.44l0-.54a3.77,3.77,0,0,0-.57,0c-.6,0-.87.21-.87.58s.31.5.87.66,1.23.36,1.23,1.14-.53,1.11-1.5,1.11a4.34,4.34,0,0,1-1.21-.18l0-.88" transform="translate(-9.07 -5.04)"></path><path class="cls-1" d="M38.59,61.13v2.24h.8v.57h-3.1c-.62,0-.95-.29-1-.85a3.22,3.22,0,0,1,0-.33v-.4c0-.14,0-.27,0-.4a2.9,2.9,0,0,1,0-.34,1.25,1.25,0,0,1,.28-.65,1.26,1.26,0,0,1,.62-.38,2,2,0,0,1,.91,0A2,2,0,0,1,38,61v-.4h.86v.57h-.27M38,61.8a.32.32,0,0,0-.11-.19,1.23,1.23,0,0,0-.27-.22,1.64,1.64,0,0,0-.35-.18,1.49,1.49,0,0,0-.39-.1.94.94,0,0,0-.72.2,1.13,1.13,0,0,0-.27.76v.76a1.87,1.87,0,0,0,0,.27.27.27,0,0,0,.08.16.24.24,0,0,0,.15.08,1,1,0,0,0,.27,0H38Zm-1.82-2.51h.6v.61h-.6Zm.91,0h.6v.61h-.6Z" transform="translate(-9.07 -5.04)"></path><path class="cls-1" d="M42,63.94h-.67a1,1,0,0,1-.6-.18.89.89,0,0,1-.59.18h-.74v-.57h.56l.23,0a.52.52,0,0,0,.15-.07.37.37,0,0,0,.07-.14.75.75,0,0,0,0-.23v-2H41v2a1.29,1.29,0,0,0,0,.23.29.29,0,0,0,.08.14.37.37,0,0,0,.14.07l.23,0H42v.57m-2,.59h.6v.6H40Zm.92,0h.59v.6h-.59Z" transform="translate(-9.07 -5.04)"></path><path class="cls-1" d="M41.92,63.37h3.15V62.11a1.08,1.08,0,0,0-.09-.46.72.72,0,0,0-.26-.31.76.76,0,0,0-.38-.15,1.33,1.33,0,0,0-.48,0l-.38.1-.39.15-.35.14-.22.12-.25-.58a3.24,3.24,0,0,1,.75-.35,4,4,0,0,1,.82-.21,2,2,0,0,1,.73,0,1.59,1.59,0,0,1,.59.26,1.53,1.53,0,0,1,.39.48,1.78,1.78,0,0,1,.15.67v1.35h.81v.57h-4.6v-.57" transform="translate(-9.07 -5.04)"></path><path class="cls-1" d="M46.47,63.37h.6V61.76h-.28v-.59h.87v.44a2.55,2.55,0,0,1,.3-.26l.35-.23a3.37,3.37,0,0,1,.38-.19l.37-.16.34-.11.26-.07a2.33,2.33,0,0,1,.53,0l.54.06a1.28,1.28,0,0,1,.42.17,1.18,1.18,0,0,1,.33.3,1.27,1.27,0,0,1,.21.4,1.45,1.45,0,0,1,.09.47,1.93,1.93,0,0,0,0,.26v.58a1.7,1.7,0,0,0,0,.25,1.08,1.08,0,0,1,0,.32h.86v.57H46.47v-.57m4-2.18a1.34,1.34,0,0,0-.63,0,3,3,0,0,0-.64.2,4.25,4.25,0,0,0-.6.31,5.76,5.76,0,0,0-.49.35l-.34.28c-.08.08-.12.12-.12.14v.9h3.19a.32.32,0,0,0,.25-.1.38.38,0,0,0,.09-.27v-.23a.66.66,0,0,1,0-.15v-.2a.66.66,0,0,1,0-.15V62a1,1,0,0,0-.19-.57A1,1,0,0,0,50.48,61.19Z" transform="translate(-9.07 -5.04)"></path><path class="cls-1" d="M52.56,63.37h.33l.23,0a.42.42,0,0,0,.15-.07.39.39,0,0,0,.08-.14,1.4,1.4,0,0,0,0-.23v-3.7H53.1v-.59H54V63a1,1,0,0,1-.24.67.91.91,0,0,1-.66.23h-.51v-.57" transform="translate(-9.07 -5.04)"></path><polyline class="cls-1" points="46.55 58.91 45.98 58.91 45.98 54.16 45.7 54.16 45.7 53.58 46.55 53.58 46.55 58.91"></polyline><path class="cls-1" d="M59.31,60.92a2.1,2.1,0,0,0-.31.54,2.5,2.5,0,0,0-.16.64,1.19,1.19,0,0,0,.21.92,1.1,1.1,0,0,0,.87.35h3.83l.23,0a.37.37,0,0,0,.14-.07.39.39,0,0,0,.08-.14c0-.06,0-.14,0-.23V61.15H64v-.59h.87V63a1,1,0,0,1-.24.67.89.89,0,0,1-.65.23H59.75a1.69,1.69,0,0,1-.56-.09,1.39,1.39,0,0,1-.44-.26,1.27,1.27,0,0,1-.31-.41,1.77,1.77,0,0,1-.17-.55,2.33,2.33,0,0,1,0-.46,3.57,3.57,0,0,1,0-.46,3.63,3.63,0,0,1,.19-.61,3,3,0,0,1,.32-.54l.51.36m1.6-1h.6v.6h-.6Zm.91,0h.6v.6h-.6Z" transform="translate(-9.07 -5.04)"></path><path class="cls-1" d="M67.34,63.94h-.82a.91.91,0,0,1-.66-.23.94.94,0,0,1-.23-.67V58.61h.86v.59h-.27v3.71a1.4,1.4,0,0,0,0,.23.64.64,0,0,0,.08.14.52.52,0,0,0,.15.07l.23,0h.64v.57" transform="translate(-9.07 -5.04)"></path><path class="cls-1" d="M67.3,63.37h.6V61.76h-.28v-.59h.87v.44a2.55,2.55,0,0,1,.3-.26l.35-.23a3.37,3.37,0,0,1,.38-.19l.37-.16.33-.11.27-.07a2.33,2.33,0,0,1,.53,0l.54.06a1.28,1.28,0,0,1,.42.17,1.34,1.34,0,0,1,.33.3,1.27,1.27,0,0,1,.21.4,1.78,1.78,0,0,1,.09.47v.26a1,1,0,0,1,0,.16v.25a1.09,1.09,0,0,1,0,.17v.25a1.08,1.08,0,0,1,0,.32h.86v.57H67.3v-.57m4-2.18a1.34,1.34,0,0,0-.63,0,3,3,0,0,0-.64.2,4.25,4.25,0,0,0-.6.31,5.76,5.76,0,0,0-.49.35,4.26,4.26,0,0,0-.34.28c-.08.08-.12.12-.12.14v.9h3.19a.34.34,0,0,0,.25-.1A.38.38,0,0,0,72,63v-.23a.66.66,0,0,1,0-.15v-.2a.66.66,0,0,1,0-.15V62a1,1,0,0,0-.19-.57A1,1,0,0,0,71.31,61.19Z" transform="translate(-9.07 -5.04)"></path><path class="cls-1" d="M73.39,63.37H74V61.76h-.27v-.59h.87v.44a1.56,1.56,0,0,1,.3-.26l.35-.23a2.69,2.69,0,0,1,.38-.19l.37-.16.33-.11.26-.07a2.42,2.42,0,0,1,.54,0,4.52,4.52,0,0,1,.53.06,1.25,1.25,0,0,1,.43.17,1.3,1.3,0,0,1,.32.3,1.11,1.11,0,0,1,.22.4,1.78,1.78,0,0,1,.09.47v.26c0,.06,0,.12,0,.16v.25s0,.1,0,.17v.25a1.55,1.55,0,0,1,0,.32h.86v.57H73.39v-.57m4-2.18a1.34,1.34,0,0,0-.63,0,3,3,0,0,0-.65.2,4.75,4.75,0,0,0-.59.31,5.76,5.76,0,0,0-.49.35,3,3,0,0,0-.34.28c-.08.08-.12.12-.12.14v.9h3.19a.34.34,0,0,0,.25-.1A.38.38,0,0,0,78.1,63a2,2,0,0,0,0-.23v-.15a.38.38,0,0,0,0-.1.34.34,0,0,0,0-.1v-.15a2.27,2.27,0,0,0,0-.24.91.91,0,0,0-.19-.57A.89.89,0,0,0,77.4,61.19Z" transform="translate(-9.07 -5.04)"></path><path class="cls-1" d="M79.48,63.37h3.15V62.11a1.08,1.08,0,0,0-.09-.46.72.72,0,0,0-.26-.31.76.76,0,0,0-.38-.15,1.33,1.33,0,0,0-.48,0l-.37.1-.4.15-.35.14-.22.12-.25-.58a3.68,3.68,0,0,1,.75-.35,4,4,0,0,1,.82-.21,2,2,0,0,1,.73,0,1.59,1.59,0,0,1,.59.26,1.53,1.53,0,0,1,.39.48,1.78,1.78,0,0,1,.15.67v1.35h.81v.57H79.48v-.57m1.21-4.08h.59v.61h-.59Z" transform="translate(-9.07 -5.04)"></path><path class="cls-1" d="M86.63,63.94H86a1,1,0,0,1-.6-.18.89.89,0,0,1-.59.18H84v-.57h.56l.23,0a.37.37,0,0,0,.14-.07.29.29,0,0,0,.08-.14,1.29,1.29,0,0,0,0-.23v-2h.59v2a.75.75,0,0,0,0,.23.37.37,0,0,0,.07.14.52.52,0,0,0,.15.07l.23,0h.49v.57m-2-4.65h.6v.61h-.6Zm.91,0h.6v.61h-.6Z" transform="translate(-9.07 -5.04)"></path><path class="cls-1" d="M88.88,63.94h-.55a.93.93,0,0,1-.6-.18.9.9,0,0,1-.59.18h-.55v-.57H87l.23,0a.37.37,0,0,0,.14-.07.39.39,0,0,0,.08-.14c0-.06,0-.14,0-.23V58.62H88v4.29a1.4,1.4,0,0,0,0,.23.39.39,0,0,0,.08.14.52.52,0,0,0,.15.07l.23,0h.37v.57" transform="translate(-9.07 -5.04)"></path><path class="cls-1" d="M88.84,63.37h.34l.23,0a.52.52,0,0,0,.15-.07.37.37,0,0,0,.07-.14.75.75,0,0,0,0-.23v-3.7h-.28v-.59h.87V63a.9.9,0,0,1-.24.67.89.89,0,0,1-.65.23h-.52v-.57" transform="translate(-9.07 -5.04)"></path><path class="cls-1" d="M96.17,61.13v2.24H97v.57h-3.1c-.62,0-1-.29-1-.85a3.22,3.22,0,0,1,0-.33v-.4c0-.14,0-.27,0-.4s0-.24,0-.34a1.21,1.21,0,0,1,.91-1,2,2,0,0,1,.91,0,2,2,0,0,1,.83.41v-.4h.86v.57h-.27m-.59.67a.29.29,0,0,0-.1-.19,1.23,1.23,0,0,0-.27-.22,1.51,1.51,0,0,0-.36-.18,1.34,1.34,0,0,0-.38-.1.94.94,0,0,0-.72.2,1.13,1.13,0,0,0-.27.76v.76a1.87,1.87,0,0,0,0,.27.27.27,0,0,0,.08.16.24.24,0,0,0,.15.08,1,1,0,0,0,.27,0h1.58Zm-1.81-2.51h.6v.61h-.6Zm.91,0h.6v.61h-.6Z" transform="translate(-9.07 -5.04)"></path><path class="cls-1" d="M96.93,63.37h1.12l.23,0a.52.52,0,0,0,.15-.07.37.37,0,0,0,.07-.14.75.75,0,0,0,0-.23V61.15h-.27v-.59h.86V63a.8.8,0,0,1-.89.9h-1.3v-.57m.46,1.16H98v.6h-.6Zm.91,0h.6v.6h-.6Z" transform="translate(-9.07 -5.04)"></path><path class="cls-1" d="M100.1,61.34v-.78h2.34a.89.89,0,0,1,1,1v2.35H99.93v-.57h2.95V61.69a1.87,1.87,0,0,0,0-.27.34.34,0,0,0-.08-.16.3.3,0,0,0-.16-.08l-.27,0H100.7v.18h-.6" transform="translate(-9.07 -5.04)"></path><path class="cls-1" d="M107,63.94h-1.71c-.62,0-1-.29-1-.85a3.22,3.22,0,0,1,0-.33v-.4c0-.14,0-.27,0-.4s0-.24,0-.34a1.21,1.21,0,0,1,.91-1,2,2,0,0,1,.91,0A2,2,0,0,1,107,61v-.4h.86v.57h-.27v2.24h.8v.57h-.8v.52a1.69,1.69,0,0,1-.15.66,1.26,1.26,0,0,1-.38.47,1.52,1.52,0,0,1-.57.28,2.12,2.12,0,0,1-.72,0l-.34,0-.33-.09.06-.61.18,0,.25.05.25,0,.18,0a1,1,0,0,0,.71-.23,1,1,0,0,0,.27-.69v-.46m0-2.14a.29.29,0,0,0-.1-.19,1.23,1.23,0,0,0-.27-.22,1.51,1.51,0,0,0-.36-.18,1.43,1.43,0,0,0-.38-.1,1,1,0,0,0-.73.2,1.18,1.18,0,0,0-.26.76v.76a1.06,1.06,0,0,0,0,.27.27.27,0,0,0,.08.16.22.22,0,0,0,.15.08,1,1,0,0,0,.27,0H107Z" transform="translate(-9.07 -5.04)"></path><path class="cls-1" d="M112.48,63.37v.57h-4.14v-.57h1.21a5.39,5.39,0,0,1-.86-1.45,2.36,2.36,0,0,1,0-.35,1.12,1.12,0,0,1,0-.27.62.62,0,0,1,.1-.22,1.1,1.1,0,0,1,.14-.18,1.58,1.58,0,0,1,1.15-.34h.53a1.61,1.61,0,0,1,1.16.34l.15.19a.6.6,0,0,1,.1.23.77.77,0,0,1,0,.27,1.45,1.45,0,0,1-.06.33,3.07,3.07,0,0,1-.25.52c-.13.24-.34.55-.6.93h1.33m-1.08-1.6a.37.37,0,0,0-.09-.34.7.7,0,0,0-.35-.2l-.11,0-.15,0h-.53a1.55,1.55,0,0,0-.43.07.8.8,0,0,0-.37.21.28.28,0,0,0-.08.15.6.6,0,0,0,0,.19,3,3,0,0,0,.28.5c.17.26.42.63.76,1.1h0A9.07,9.07,0,0,0,111.4,61.77Z" transform="translate(-9.07 -5.04)"></path><path class="cls-1" d="M118.52,63.94H118a.93.93,0,0,1-.61-.2.87.87,0,0,1-.32.16,2.23,2.23,0,0,1-.47,0h-4.17v-.57h.61V61.76h-.27v-.59h.86v2.2h1.44V60.88h.61v2.49h1.14a.34.34,0,0,0,.16-.06.64.64,0,0,0,.08-.14.6.6,0,0,0,0-.2,1.48,1.48,0,0,0,0-.21v-2.2h.6v2.35a1.29,1.29,0,0,0,0,.23.29.29,0,0,0,.08.14.37.37,0,0,0,.14.07l.23,0h.33v.57" transform="translate(-9.07 -5.04)"></path><path class="cls-1" d="M118.48,63.37h.33l.24,0a.37.37,0,0,0,.14-.07.39.39,0,0,0,.08-.14c0-.06,0-.14,0-.23v-3.7H119v-.59h.87V63a1,1,0,0,1-.24.67.89.89,0,0,1-.65.23h-.52v-.57" transform="translate(-9.07 -5.04)"></path><polyline class="cls-1" points="112.47 58.91 111.9 58.91 111.9 54.16 111.63 54.16 111.63 53.58 112.47 53.58 112.47 58.91"></polyline><path class="cls-1" d="M127.46,61.13v2.24h.8v.57h-3.1c-.62,0-1-.29-1-.85a3.22,3.22,0,0,1,0-.33v-.4c0-.14,0-.27,0-.4a2.9,2.9,0,0,1,0-.34,1.25,1.25,0,0,1,.28-.65,1.26,1.26,0,0,1,.62-.38,2,2,0,0,1,.91,0,2,2,0,0,1,.83.41v-.4h.86v.57h-.27m-.58.67a.32.32,0,0,0-.11-.19,1.23,1.23,0,0,0-.27-.22,1.64,1.64,0,0,0-.35-.18,1.49,1.49,0,0,0-.39-.1.94.94,0,0,0-.72.2,1.13,1.13,0,0,0-.27.76v.76a1.87,1.87,0,0,0,0,.27.27.27,0,0,0,.08.16.24.24,0,0,0,.15.08,1,1,0,0,0,.27,0h1.59Zm-1.82-2.51h.6v.61h-.6Zm.91,0h.6v.61H126Z" transform="translate(-9.07 -5.04)"></path><path class="cls-1" d="M130.52,63.94H130a1,1,0,0,1-.6-.18.89.89,0,0,1-.59.18h-.55v-.57h.37l.23,0a.52.52,0,0,0,.15-.07.37.37,0,0,0,.07-.14.75.75,0,0,0,0-.23v-2h.59v2a1.29,1.29,0,0,0,0,.23.29.29,0,0,0,.08.14.37.37,0,0,0,.14.07l.23,0h.38v.57m-1.38-4.65a.39.39,0,0,0,.11.25.38.38,0,0,0,.25.11H130v.25h-1.27v-.25H129a.62.62,0,0,1-.1-.37v-.11a.55.55,0,0,1,.05-.26.48.48,0,0,1,.14-.2.74.74,0,0,1,.21-.13.77.77,0,0,1,.27,0l.21,0,.21,0V59h-.26v-.14l-.1,0h-.07a.41.41,0,0,0-.29.1.45.45,0,0,0-.11.3Z" transform="translate(-9.07 -5.04)"></path><path class="cls-1" d="M133.08,63.94h-.67a.93.93,0,0,1-.6-.18.9.9,0,0,1-.59.18h-.74v-.57H131l.24,0a.37.37,0,0,0,.14-.07.39.39,0,0,0,.08-.14c0-.06,0-.14,0-.23v-2h.59v2a1.4,1.4,0,0,0,0,.23.39.39,0,0,0,.08.14.52.52,0,0,0,.15.07l.23,0h.49v.57m-2,.59h.6v.6h-.6Zm.91,0h.6v.6H132Z" transform="translate(-9.07 -5.04)"></path><path class="cls-1" d="M136.61,60a2.25,2.25,0,0,1,.74,0,1.54,1.54,0,0,1,.58.26,1.29,1.29,0,0,1,.39.48,1.47,1.47,0,0,1,.15.67v1.94h.79v.57H133v-.57h.49a.87.87,0,0,1-.05-.28,5.42,5.42,0,0,1,0-.57,3.43,3.43,0,0,1,.05-.56,1.25,1.25,0,0,1,.29-.66,1.21,1.21,0,0,1,.61-.37,2.14,2.14,0,0,1,.74-.07l-.13-.31a3.68,3.68,0,0,1,.75-.35,4.12,4.12,0,0,1,.82-.21m-.43,2.14a.35.35,0,0,0-.11-.19,1.48,1.48,0,0,0-.26-.21,3,3,0,0,0-.36-.19,1.39,1.39,0,0,0-.38-.09.94.94,0,0,0-.73.2,1.08,1.08,0,0,0-.27.75v.43a1.87,1.87,0,0,0,0,.27.34.34,0,0,0,.07.16.36.36,0,0,0,.15.08l.25,0h1.62Zm.58,1.24h1.09V61.52a1.08,1.08,0,0,0-.1-.46.76.76,0,0,0-.25-.31.84.84,0,0,0-.38-.15,1.31,1.31,0,0,0-.48,0l-.25.06-.26.09-.27.1-.24.1a2.29,2.29,0,0,1,.56.33l.2.17a1.14,1.14,0,0,1,.19.19,1.28,1.28,0,0,1,.14.21.69.69,0,0,1,0,.24Z" transform="translate(-9.07 -5.04)"></path><path class="cls-1" d="M139.22,63.37h.34l.23,0a.37.37,0,0,0,.14-.07.39.39,0,0,0,.08-.14c0-.06,0-.14,0-.23v-3.7h-.28v-.59h.87V63a1,1,0,0,1-.24.67.89.89,0,0,1-.65.23h-.52v-.57" transform="translate(-9.07 -5.04)"></path><polyline class="cls-1" points="133.22 58.91 132.64 58.91 132.64 54.16 132.37 54.16 132.37 53.58 133.22 53.58 133.22 58.91"></polyline><path class="cls-1" d="M20.14,73.47H15.63a6.56,6.56,0,0,1-6.56-6.56v-50a6.57,6.57,0,0,1,6.56-6.57H44.21a.54.54,0,0,1,0,1.07H15.63a5.5,5.5,0,0,0-5.5,5.5v50a5.51,5.51,0,0,0,5.5,5.5h4.51a.53.53,0,0,1,0,1.06Z" transform="translate(-9.07 -5.04)"></path><path class="cls-1" d="M162.11,73.47H157.6a.53.53,0,1,1,0-1.06h4.51a5.51,5.51,0,0,0,5.5-5.5v-50a5.5,5.5,0,0,0-5.5-5.5H133.53a.54.54,0,0,1,0-1.07h28.58a6.57,6.57,0,0,1,6.56,6.57v50A6.56,6.56,0,0,1,162.11,73.47Z" transform="translate(-9.07 -5.04)"></path></svg>